<?xml version="1.0" encoding="UTF-8"?>
<svg id="Layer_1" data-name="Layer 1" xmlns="http://www.w3.org/2000/svg" viewBox="0 0 500.91 134.29">
  <defs>
    <style>
      .cls-1 {
        fill: #8591b0;
      }

      .cls-2 {
        fill: #b4aba7;
      }

      .cls-3 {
        fill: #d55473;
      }

      .cls-4 {
        fill: #ffc123;
      }

      .cls-5 {
        fill: #b4b1a0;
      }

      .cls-6 {
        fill: #3498c5;
      }

      .cls-7 {
        fill: #3abbd9;
      }

      .cls-8 {
        fill: #bc9c87;
      }

      .cls-9 {
        fill: #690202;
      }

      .cls-10 {
        fill: #a5aa89;
      }

      .cls-11 {
        fill: #21a07b;
      }

      .cls-12 {
        fill: #aebd6a;
      }

      .cls-13 {
        fill: #f96082;
      }

      .cls-14 {
        fill: #9ca9b7;
      }

      .cls-15 {
        fill: #c5d7e3;
      }

      .cls-16 {
        fill: #aa5b3f;
      }

      .cls-17 {
        fill: #8a7b80;
      }

      .cls-18 {
        fill: #b0b07e;
      }

      .cls-19 {
        fill: #e8f6f7;
      }

      .cls-20 {
        fill: #fff;
      }

      .cls-21 {
        fill: #bcc4c7;
      }

      .cls-22 {
        fill: #498099;
      }

      .cls-23 {
        fill: #e37e93;
      }

      .cls-24 {
        fill: #3289b0;
      }

      .cls-25 {
        fill: #8bdaea;
      }

      .cls-26 {
        fill: #6dad3e;
      }

      .cls-27 {
        fill: #d05e57;
      }

      .cls-28 {
        fill: #f3375a;
      }

      .cls-29 {
        fill: #f2e13a;
      }

      .cls-30 {
        fill: #b6888d;
      }

      .cls-31 {
        fill: #cddfda;
      }

      .cls-32 {
        fill: #e3e1e1;
      }

      .cls-33 {
        fill: #e8592c;
      }

      .cls-34 {
        fill: #ce8382;
      }

      .cls-35 {
        fill: #747ea3;
      }

      .cls-36 {
        fill: #d43255;
      }

      .cls-37 {
        fill: #a3afa7;
      }

      .cls-38 {
        fill: #5cd2e2;
      }

      .cls-39 {
        fill: #aaaba5;
      }

      .cls-40 {
        fill: #fcf7bb;
      }

      .cls-41 {
        fill: #cdb1a2;
      }

      .cls-42 {
        fill: #d8e8a4;
      }

      .cls-43 {
        fill: #ecf1ea;
      }

      .cls-44 {
        fill: #c2d674;
      }

      .cls-45 {
        fill: #e07217;
      }

      .cls-46 {
        fill: #d2ddbf;
      }

      .cls-47 {
        fill: #6296ba;
      }

      .cls-48 {
        fill: #faf8df;
      }

      .cls-49 {
        fill: #f8961c;
      }

      .cls-50 {
        fill: #dd927e;
      }

      .cls-51 {
        fill: #6b6f8f;
      }

      .cls-52 {
        fill: #57323b;
      }

      .cls-53 {
        fill: #b9c9bf;
      }

      .cls-54 {
        fill: #75a3bb;
      }

      .cls-55 {
        fill: #faac1b;
      }

      .cls-56 {
        fill: #a69da1;
      }

      .cls-57 {
        fill: #fbcfde;
      }

      .cls-58 {
        fill: #fbed89;
      }

      .cls-59 {
        fill: #d1e05e;
      }

      .cls-60 {
        fill: #b6b2b8;
      }

      .cls-61 {
        fill: #844def;
      }

      .cls-62 {
        fill: #d8e6b8;
      }

      .cls-63 {
        fill: #ae3d58;
      }

      .cls-64 {
        fill: #158766;
      }

      .cls-65 {
        fill: #bcc3aa;
      }

      .cls-66 {
        fill: #e8f662;
      }

      .cls-67 {
        fill: #27b483;
      }

      .cls-68 {
        fill: #3e0104;
      }

      .cls-69 {
        fill: #bfe2e7;
      }

      .cls-70 {
        fill: #a39d48;
      }
    </style>
  </defs>
  <g id="Generative_Object" data-name="Generative Object">
    <path class="cls-22" d="M499.29,108.92c-.2,7.98-4.61,13.59-12.45,15.68-.81.22-1.82.46-2.54.92l-468.39-.46c-6.21-1.12-9.29-4.2-12.45-9.22l331.86.46.46-4.61,42.2-.46c38.34-.42,76.73.32,115.08,0l6.23-2.31Z"/>
    <path class="cls-32" d="M15.91,125.07l468.39.46c.72-.46,1.73-.71,2.54-.92,5.6.78,12.28,4.26,14.07,9.69H.46l-.46-.92c4.96-3.41,9.67-7.5,15.91-8.3Z"/>
    <path class="cls-20" d="M62.5,70.64c-2.22,6.05-33.91,31.95-34.13,34.36-.18,1.96,1.33.62,2.08,1.61,62.36,0,124.7-.03,187.03,0,.15,0,.31,0,.46,0,26.44.01,52.9,0,79.33,0,.15,0,.31,0,.46,0,7.37,0,14.77,0,22.14,0,50.63-.03,101.32.02,151.98,0,.44-.66,1.15-.16,1.15-1.15,0-1.51-18.73-19.01-21.22-21.45.52-1.88,1.56-3.72,2.31-5.53l31.13,28.6c4.63,1.7,10,2.42,14.07-.92.29,1.11.02,1.76,0,2.77l-6.23,2.31c-38.35.32-76.74-.42-115.08,0H8.3l-6.46-3.23c-.77,2.58.16,5.04,1.15,7.38-.72-1.32-2.17-2.19-2.31-4.84-.18-3.67,1.1-3.05,1.38-3.92,4.17,3.05,9.69,2.02,14.07,0l43.59-41.51c.99,1.79,1.79,3.74,2.77,5.53Z"/>
    <path class="cls-54" d="M377.99,111.23l-42.2.46-.46,4.61-331.86-.46s-.15.11-.46-.46c-.99-2.34-1.92-4.8-1.15-7.38l6.46,3.23h369.69Z"/>
    <path class="cls-22" d="M59.73,65.11l-43.59,41.51c-4.38,2.02-9.9,3.05-14.07,0,.25-.77-.71-1.14-.46-1.61l53.97-47.28c1.27,2.49,2.8,4.92,4.15,7.38Z"/>
    <path class="cls-22" d="M499.29,106.16c-4.07,3.34-9.44,2.62-14.07.92l-31.13-28.6c1.37-3.34,3.07-6.44,4.61-9.69,10.36,11.71,25.24,20.83,36.21,31.83,1.91,1.91,3.73,3.06,4.38,5.53Z"/>
    <path class="cls-54" d="M290.81,32.82c.6,1.27,1.56,2.65,2.31,4.15.21,1.83-.35,1.27-1.61,1.38-7.01.64-16.38-.03-23.75,0-4.68.02-9.38.02-14.07,0-.34,0-.56,0-.92,0-4.69-.02-9.38,0-14.07,0-5.36,0-10.79-.48-16.14-.46-.31,0-.62,0-.92,0-2.03.01-4.4-.48-6-.46.72-1.27.85-2.83,1.38-4.15l73.8-.46Z"/>
    <path class="cls-3" d="M111.39,15.75c3.74,13.99-5.61,14.97-10.15,22.83-1.14,1.98-5.36,15.43-5.53,17.76-1.73-1.64-4.13,4.29-4.15.92,3.23-5.34,1.67-4.82-.92-10.61-.23-.52-.84-1.2-.92-1.38-.94-2.06-2.27-3.99-3.23-6-1.11-2.34-2.8-4.93-3.69-6.92-.32-.72-.61-1.56-.92-2.31,2.97.22,5.22,3.16,8.07,4.15.82.29,6.15,1.78,6.23,0,5.95-.06,9.91-3.45,11.53-8.76.36-1.17.65-2.49.92-3.69.52-2.3-.35-6.06,2.77-6Z"/>
    <path class="cls-54" d="M358.62,32.82c.8,1.61,2.35,3.07,2.31,5.07-14.59,1.46-29.66.25-44.28,0,.81-1.82,2.46-3.36,3.23-5.07h38.74Z"/>
    <path class="cls-54" d="M406.58,33.28c.7,1.34,1.56,2.83,2.31,4.15-12.21.28-24.67,1.61-36.9.92-.61-.03-1.24.05-1.84,0-.09,0-1.09-.35-1.84-.46-.29-.04-.63.05-.92,0-1.32-.22-2.81-.69-4.15-.92.72-1.22.82-3.11,1.38-4.15l41.97.46Z"/>
    <path class="cls-36" d="M458.71,68.8c-1.54,3.25-3.24,6.34-4.61,9.69-.74,1.82-1.79,3.65-2.31,5.53-.16.59-1.06,1.63-.92,2.08,3.21,1.85,5.65,4.66,8.3,7.15-4.14.89-10.98,1.88-14.76,0-.67-.33-.98-1.06-1.84-.92.2.03,3.17-.37,3.69-.46,4.45-.78,1.06-3.03,1.38-6.23,1.81-17.73,17.5-23.74,18.91-36.44,1.08-9.75-3.15-15.45-9.69-21.91,19.09,11.11,8.37,27.77,1.84,41.51Z"/>
    <path class="cls-54" d="M179.19,32.82c.85,1.64,1.86,3.45,2.77,5.07h-12.68c-2.87-.38-3.91,1.9-4.15,1.84-.51-.12.06-1.61-.46-1.84-.83-.37-15.35,1.31-18.22,0,.78-1.69,1.45-3.4,2.31-5.07h30.44Z"/>
    <path class="cls-13" d="M451.79,24.98l3.23,2.54c-5.39.45-9.62-1.47-15.68.23-1.79.5-8.76,4.45-9.69,5.77-3.14,4.48-3.26,12.92-.92,18.22,2.84,6.45,8.12,9.11,14.3,11.76-3.91,1.54-7.88-1.17-10.84-3.46-1.58-1.22-2.19-4.53-4.84-3.23-.34-.71-.89-1.26-1.38-2.31-.15-.32-.33-.65-.46-.92-.31-.66-.36-2.12-.92-3.23l-1.38-6.46c2.25-5.09,5.78-10,7.84-14.76,6.37-4.57,13.01-6.18,20.76-4.15Z"/>
    <path class="cls-3" d="M103.55,5.15c3.14,3.15,6.63,6.07,7.84,10.61-3.12-.07-2.25,3.69-2.77,6,.55-3.55-1.72-8.98-4.61-11.07-4.01-4.46-11.29-4.12-15.91-.92-10.37,7.18-5.31,24.58,8.07,24.45-.07,1.78-5.4.29-6.23,0-2.85-.99-5.1-3.93-8.07-4.15-3.07-7.34-4.61-11.48,0-18.91.12,2.92-3.46,6.79-1.15,9.69.33-10.92,9.95-16.84,20.29-15.22l-1.15-1.84c1.05.2,2.7.91,3.69,1.38Z"/>
    <path class="cls-54" d="M134.91,32.82c.86,1.69,1.9,3.36,2.77,5.07h-31.36c.77-1.4,2.17-3.81,2.77-5.07h25.83Z"/>
    <path class="cls-45" d="M319.87,32.82c-.77,1.71-2.42,3.26-3.23,5.07-.28.62-.65,1.22-.92,1.84-.61,1.36-1.2,2.81-1.84,4.15-.75,1.56-1.22,3.7-1.84,5.07-.76,1.66-1.52,3.43-2.31,5.07-.43.89-1.71,4.41-1.84,4.61-2.27,3.39-3,.49-3.23.46v-.46c.8-.28,1.13-.83,1.38-1.61,1.47-4.57,2.89-12.62,5.07-16.6,3.26-5.96,10.17-7.86,11.07-17.07.6-6.09-3.31-16.09-9.69-17.76-.51-.55-1.24-.95-1.84-1.38,13.8,2.03,13.95,18.09,9.22,28.6Z"/>
    <path class="cls-63" d="M109.08,32.82c-.6,1.27-2,3.68-2.77,5.07s-2.63,3.09-2.77,5.07c-.61.87-.37,1.23-.46,1.38-.82,1.36-5.68,11.57-5.53,12.22.34,1.53,3.83.32.92,2.54-.95-.04-2.4.56-3.23-.69-.12-.86.39-1.21.46-2.08.18-2.33,4.39-15.78,5.53-17.76,4.54-7.86,13.89-8.84,10.15-22.83-1.21-4.53-4.71-7.46-7.84-10.61,12.07,5.8,10.28,17.63,5.53,27.67Z"/>
    <path class="cls-45" d="M431.03,29.13c-2.06,4.76-5.59,9.67-7.84,14.76-.25.58-.53,1.84-.92,2.77s-.99,1.67-1.38,2.77-1.13,2.62-.46,3.69c-.34-.03-.62.64-1.61.46-.2-.04-.53-.77-1.15-.92-.09-.52-.28-1.4-.46-1.84,1.12.23,1.45-.24,1.84-1.15,1.81-4.17,2.49-11.31,5.07-15.22,1.41-2.14,4.98-3.98,6.46-6.46,5.42-9.11,1.85-22-8.76-25.14v-.46c13.23,3.53,13.91,15.93,9.22,26.75Z"/>
    <path class="cls-4" d="M309.26,3.3c.19.86.7.82,1.38.92.61.44,1.34.83,1.84,1.38-10.93-2.86-20.78,2.74-23.52,13.61-.6,2.38,1.5,5.33-1.84,5.3-2.49-12.71,9.22-24.69,22.14-21.22Z"/>
    <path class="cls-54" d="M212.4,33.28c.76,1.65,2.42,3,1.84,5.07-2.68.06-5.39-.11-8.07,0-.64.03-1.22,0-1.38,0-2.53.08-5.08-.06-7.61,0-.04-2.01,1.09-3.78,1.84-5.53l13.38.46Z"/>
    <path class="cls-7" d="M199.03,32.82c-.76,1.75-1.89,3.52-1.84,5.53-.16.05-.38-.06-.46,0-.31.22-1.36,4.46-1.84,5.53-.62,1.38-1.23,1.68-1.84,3.69-.15.49-.92,3.06-.92,3.23,0,.14-.03.33,0,.46h-.46c-.58-4.33,1.3-12.83,3.23-16.84,2.21-4.6,6.84-6.21,7.38-12.45.54-6.33-3.4-12.73-9.22-15.45,13.81,5,10.65,15.51,6,26.29Z"/>
    <path class="cls-45" d="M148.75,32.82c-.85,1.67-1.52,3.38-2.31,5.07-.92,1.99-2.08,3.89-2.77,6-.14.08-.15,2.46-2.31.92.06-.22.03-.65,0-.92,2.7-3.59,2.95-10.56,5.07-14.07,1.22-2.01,4.62-3.48,5.53-4.61,5.37-6.65,4.58-20.93-4.61-23.29v-.92c16.56,6.13,6.23,22.35,1.38,31.83Z"/>
    <path class="cls-4" d="M421.81,2.38v.46c-.85,2.51-3.6.48-6.23.92-6.21,1.05-10.87,5.39-12.68,11.3-.73,2.37.36,5.26-1.84,6.69-2.52-12.71,8.18-22.73,20.76-19.37Z"/>
    <path class="cls-23" d="M99.86,3.76l1.15,1.84c-10.34-1.62-19.97,4.3-20.29,15.22-2.3-2.89,1.28-6.76,1.15-9.69,3.98-6.42,10.67-8.77,17.99-7.38Z"/>
    <path class="cls-47" d="M86.48,39.28l-3.23,3.23c.19-3.41-.39-5.71-1.84-8.76l1.38-1.38c.89,1.98,2.58,4.58,3.69,6.92Z"/>
    <path class="cls-45" d="M310.65,4.22c-.68-.1-1.19-.06-1.38-.92,2.11.57,1.04.67,1.38.92Z"/>
    <path class="cls-54" d="M229.93,105.23c.61,0,1.23,0,1.84,0,3.04,0,6.19,0,9.22,0,.61,0,1.23,0,1.84,0,9.67,0,19.39,0,29.06,0,.15,0,.31,0,.46,0,3.35,0,6.8,0,10.15,0,.46,0,.93,0,1.38,0,3.64.02,7.61.34,11.3.46.84.03,2.28-.47,2.08.92-26.44,0-52.9.01-79.33,0-.29-.53.84-1.37.92-1.38.15-.02.31,0,.46,0,3.06-.11,7.29.03,10.61,0Z"/>
    <path class="cls-54" d="M305.57,96.47c.3-.03.63-.02.92,0,.68.05,3.74,1.08,3.69,1.61-4.26-.45-1.16,6.9-.69,7.15,1,.54,8.15-.4,9.92,0,.23.82,1.37.1.46,1.38-7.37,0-14.77,0-22.14,0-.3-.52.84-1.37.92-1.38,1.52-.32,9.19.46,9.69-.23-.72-4.96-2.04-5.09-5.53-7.38.11-.55,2.18-1.09,2.77-1.15Z"/>
    <path class="cls-20" d="M430.57,68.8c.84.47,4.8,7.27,6.92,7.84,1.62,2.54,5,7.4,4.61,10.15-.72,0-2.66,1.33-3.23,1.84l-18.45-19.14c6.06,6.41,11.37,13.73,17.99,19.6,1.09.97,1.96,2.87,3.69,3.23l12.45,12.68c-.28.44-9.68.43-10.38.23-1.7-.5-11.49-12.41-14.07-14.07l8.3-.92c-1.69-1.06-8.15.46-8.99.23-1.36-.36-15.15-19.44-18.45-21.22-1.02.1,1.49,2.85,1.61,3,4.95,6,10.58,11.63,15.68,17.53-1.71-.08-9.15.88-9.92.69-1.35-.33-14.17-19.87-16.84-22.14,4.28.04,27.08-.63,29.06.46Z"/>
    <path class="cls-9" d="M213.79,66.95c.15,0,.31,0,.46,0,3.07,0,6.16,0,9.22,0,.3,0,.62,0,.92,0,3.84,0,7.69,0,11.53,0,2.3,0,4.62,0,6.92,0,2.92,0,5.85,0,8.76,0,.15,0,.31,0,.46,0,2.76,0,5.54,0,8.3,0,.15,0,.31,0,.46,0,3.07,0,6.16,0,9.22,0,.15,0,.31,0,.46,0,2.77,0,5.55,0,8.3,0,2.52,0,5.15.46,7.38.46,6.71,0,13.52-.47,20.29-.46.3,0,.61,0,.92,0,2.76,0,5.54,0,8.3,0,15.37.01,30.81-.02,46.12,0,3.07,0,6.17,0,9.22,0,.15,0,.31,0,.46,0,2.92,0,5.86,0,8.76,0s6.15.46,9.22.46c.44,0,.48-.46.92-.46,5.85,0,11.69.02,17.53,0,3.4-.01,6.73.04,10.15,0,3.21-.03,6.49-.11,9.69,0,.3.01.62-.02.92,0,1.2.06,2.31,1.1,3.69,0,.28.51.37,1.22.46,1.38-.6.05-1.25-.07-1.84,0-.35.04-.51.06-.46.46-1.98-1.1-24.78-.42-29.06-.46-.15,0-.31,0-.46,0-3.68-.03-7.39.02-11.07,0-4.76-.03-9.54.02-14.3,0-.92,0-1.85,0-2.77,0-.15,0-.31,0-.46,0-2.61,0-5.23,0-7.84,0-.3,0-.62,0-.92,0-3.22,0-6.46,0-9.69,0-.15,0-.31,0-.46,0-15.06-.04-30.14.02-45.2,0-.46,0-.93,0-1.38,0-2.76,0-5.54,0-8.3,0-.15,0-.31,0-.46,0-2.75,0-5.66.46-8.3.46s-5.55-.46-8.3-.46c-.46,0-.93,0-1.38,0-.61,0-1.23,0-1.84,0-5.84,0-11.69,0-17.53,0-.15,0-.31,0-.46,0-2.76,0-5.54,0-8.3,0-.15,0-.31,0-.46,0-3.53,0-7.08,0-10.61,0-2.3,0-4.62,0-6.92,0-.77,0-1.54,0-2.31,0-5.98,0-12.06.45-17.99.46-.15,0-.31,0-.46,0-4.22,0-8.63-.47-12.91-.46.85-1.22,3.46.48,3.23-1.38,3.38,0,6.77,0,10.15,0Z"/>
    <path class="cls-20" d="M425.96,54.5c.5,1.05,1.04,1.6,1.38,2.31,1.68,3.44,3.24,6.77,5.07,10.15-1.38,1.1-2.49.06-3.69,0l-10.61-10.84,7.84-1.61Z"/>
    <path class="cls-28" d="M428.72,51.73c-2.34-5.3-2.21-13.74.92-18.22.92-1.32,7.9-5.26,9.69-5.77-.96,4.75-8.28,5.81-9.69,11.76l-.92,12.22Z"/>
    <path class="cls-28" d="M442.1,86.78c2.31-.01,4.13,3.1,4.15,5.07-.52.09-3.49.49-3.69.46-.15-.02-.32.03-.46,0-1.73-.36-2.6-2.26-3.69-3.23.52.08.44-.44.46-.46.57-.51,2.51-1.84,3.23-1.84Z"/>
    <path class="cls-56" d="M435.18,72.49c1.42,1.67,1.53,2.93,2.31,4.15-2.12-.57-6.08-7.37-6.92-7.84-.05-.4.11-.42.46-.46.53,1.74,3.04,2.84,4.15,4.15Z"/>
    <path class="cls-20" d="M432.88,68.34c.74,1.36,2.11,2.52,2.31,4.15-1.11-1.31-3.62-2.41-4.15-4.15.6-.07,1.24.05,1.84,0Z"/>
    <path class="cls-20" d="M296.81,43.89c1.87,3.53,3.72,7.04,5.53,10.61-1.54,1.82-3.88.53-5.77.46l2.54-1.15c-4.6.34-3.29-2.18-5.53-4.84l-1.38-4.38,4.61-.69Z"/>
    <path class="cls-12" d="M293.58,48.96c2.25,2.66.93,5.18,5.53,4.84l-2.54,1.15c1.88.07,4.23,1.35,5.77-.46.71,1.4,1.64,2.72,2.31,4.15v.46c-1.74-.22-4.88-.7-6.46,0-3.13,1.38.12,3.98,0,7.15-1.22-.38-1.12-2.25-1.38-3-.7-1.96-1.21-4.01-1.84-6l3.23-1.15-4.61-.69c-.58-1.9-.51-5.68-1.38-7.84.26.19,1.16,1.11,1.38,1.38Z"/>
    <path class="cls-60" d="M296.35,42.97c.16.29.31.63.46.92l-4.61.69,1.38,4.38c-.23-.27-1.12-1.19-1.38-1.38-.03-.02-.02-.15-.46-.46.54-.47-.35-2.68-.46-2.77.64-.05.22-.52.92-.92,1.36-.77,2.71-.39,4.15-.46Z"/>
    <path class="cls-11" d="M78.18,55.42c-1.63,4.75-5.41,9.59-6.46,14.76-.86,1.33-1.93,3.42-1.84,5.07-.64.79-.85,1.77-.92,1.84-.72.77-1.13,2.05-2.54,1.84-.52-.4-.04-1.54-.23-1.84l5.07-16.84c1.26-3.29,5.05-4.74,6.92-7.15.35.38.07,2.09,0,2.31Z"/>
    <path class="cls-39" d="M222.55,37.89c.47,1.71-3.5,4.8-1.61,5.53,1.43-.32,5.46.44,6.46,0,1.26-.55.3-2.73.92-3.23.47-.38,1.04.9,1.61.92-1.58,1.36-1.86,2.09.46,2.54-4.63-.15-1.77,3.88-3.46,6.69-1.78-.26-.63-1.04-.69-1.38-.15-.84-.26-1.45-.46-2.31-.55-2.33.18-2.88-4.15-2.31-4.77.63-2.07,2.23-2.77,4.61-.14.49-.55.9-.92,2.31-1.09,4.1-1.49,7.93-2.31,11.99-.08.38-1.43,2.68-1.38,3.69-.15,0-.31,0-.46,0-.39-2.32,3.53-14.52,3.23-15.45-.27-.85-1.88-.62-1.84-.92.06-.45,1.61.17,2.31-.92.34-.53.47-4.09.92-5.07-.41-1.04-6.52-1.1-7.38,0-2.16,2.77-3.13,18.19-6.23,21.91l5.77-21.91c-.34-.91-5.58-.93-6.23-.69-1.69.62-6.82,20.53-7.61,23.52-1.15,0-.87-.46-.92-.46.27-1.08.59-2.17.92-3.23.96-3.06,1.91-6.13,2.77-9.22.92-3.34,1.97-6.68,3.23-9.92-.49-1.37-6.67-.07-7.84.23v-.92c.49-1.08,1.54-5.31,1.84-5.53l-.23,5.07c3.44-.42,7.02,1.62,7.84-2.77-.05,3.76,6.59,4.08,7.38.46l.46,1.84c2.7.8,12.48-2.18,6.69-3.92l2.77-1.15c.31,0,.62,0,.92,0Z"/>
    <path class="cls-43" d="M238.69,38.35c-.17.99-.46,1.86-.92,2.77-.91-2.64-2.12-.03-2.31,0-1.47.21-3.95.05-5.53,0-.58-.02-1.14-1.3-1.61-.92-.63.5.34,2.68-.92,3.23-.99.44-5.03-.32-6.46,0-1.89-.74,2.08-3.82,1.61-5.53,5.36-.02,10.78.47,16.14.46Z"/>
    <path class="cls-20" d="M408.89,37.43c1.14,2.01,2.5,3.99,3.69,6-1.88-.28-4.74.38-6.46,0-1.92-.43-4.29-3.75-6.23-4.61l2.77,4.61c-6.76,1.61-6.85-2.41-11.3-3.92l3.69,3.69c-4.21.51-6.01.98-8.76-2.31-.74-.89,1.93-1.54-1.38-1.61-.38,0-.77,0-1.15,0-.6.63.68.42.69.46.72,1.76.8,1.83,2.54,2.77l-.46.92c-5.28.87-4.9-.6-8.07-2.77-4.27-2.92-3.63.49-6.46-2.31,12.23.69,24.69-.64,36.9-.92Z"/>
    <path class="cls-20" d="M417.19,50.81c.18.45.37,1.33.46,1.84-.77-.19-2.49.24-3,0-1.94-.89-4.34-5.1-6.23-6.46,1.71.1,3.95.25,5.53-.46.97,1.62,2.55,3.36,3.23,5.07Z"/>
    <path class="cls-3" d="M412.58,43.43c.46.77.92,1.54,1.38,2.31-1.59.71-3.83.56-5.53.46-.05,0,.08-.78-.92,0-.52-.42-1.3-1.34-1.38-1.38v-1.38c1.72.38,4.57-.28,6.46,0Z"/>
    <path class="cls-32" d="M199.49,54.5c-2.69-.49-5.59,1.06-8.3.46-.07-.02.38-2.03-.92-1.15.09,3.12-2.59,6.87-3.23,9.46h-7.84c2-4.67,2.87-9.88,5.53-14.3,1.52.02,4,.78,3.69-.46.57.96.51.66.92,1.84l-5.07,1.61c.02.84,5.19.76,6,.69.27-.02,1.74,1.72,1.38-1.38h.46c.15.55-.04.96.69,1.38l6.69-.69-7.38-1.15c0-.17.77-2.74.92-3.23,1.78.34,1.84-1.31,1.84-2.77,1.17-.3,7.35-1.6,7.84-.23-1.26,3.24-2.31,6.57-3.23,9.92Z"/>
    <path class="cls-39" d="M184.73,42.51c.44.76.93,1.54,1.38,2.31-6.67-.8-6.34-1.98-9.22,3.23-2.47,4.46-5.03,10.87-6,15.68-1.63.5-1.43,1.98-1.84,3.23-.3,0-.62,0-.92,0,.44-.88.63-2.51.92-3.23,2.05-5.11,4.04-10.08,6-15.22.27-.7.34-1.07.46-1.38.06-.17,2.39-.75,1.61-2.77-2.02.81-7.51-1.95-7.15,1.38-.32-.16-.34.52-.92.23-.44-.22.6-1.41.23-1.61-.25-.14-5.11-.1-5.77,0-.03-.3.06-.64,0-.92,6.3,2.26,7.35-3.16,8.53-3.69,3.63-1.63-1.3,2.45-.92,3.69,4.92.38,6.37.32,9.22-3.69l-.92,3.69,5.3-.92Z"/>
    <path class="cls-44" d="M186.11,44.81c.73,1.25,1.58,2.47,2.31,3.69.31,1.24-2.17.48-3.69.46-.46,0-1.26,0-1.38,0-2.2-.12-4.4.17-6.46-.92,2.89-5.2,2.55-4.03,9.22-3.23Z"/>
    <path class="cls-21" d="M190.26,52.65c-.8.06-5.97.15-6-.69l5.07-1.61c.27.77.97,1.42.92,2.31Z"/>
    <path class="cls-44" d="M139.99,42.04c.11.26,1.37,1.73,1.38,1.84.03.27.06.7,0,.92-.54,2.03-3.19,1.41-3.23,2.08-.06,1.07,3.38,1.23,4.15,0,.43,1.51-.61,2.35-.92,3.46-.59-.07-.68-.16-.92.46-1.31-.27-4.91-1.13-6-.92.08-.53-.34-.39-.46-.46l6-7.38Z"/>
    <path class="cls-18" d="M139.99,42.04l-6,7.38c-.12-.07-.54.07-.46-.46.96-1.61,2.39-3.03,2.77-4.84-.29-.38-6.51-.08-7.38.23l2.31-.69c-2.52-.55-.71-.65-.46-1.15,3.65.93,6.45,1.95,7.84-1.84.08-.23-.03-.53.46-.46.31.65.62,1.16.92,1.84Z"/>
    <path class="cls-20" d="M91.56,57.27c-.04.07-.84-.17-1.38.69-1.74,2.75-3.01,6.41-5.53,8.99-1.67.04-3.41-.11-5.07,0,2.76-2.37.02-3.68,0-3.92-.15-1.86,9.38-13.91,11.07-16.37,2.6,5.79,4.15,5.27.92,10.61Z"/>
    <path class="cls-60" d="M124.77,39.28c.75-.07,1.55.05,2.31,0,.13.25-.73.72-.46,1.38-3.4.32-6.61,2.64-.92,2.77v.46c-.55-.1-4.02-.12-4.38,0-1.34.45-12.71,17.72-14.53,20.29-.55.78-1.87,1.8-2.31,2.77-.17,0-.32,0-.46,0,.37-1.52,1.44-2.9,2.31-4.15.43-.62.94-1.22,1.38-1.84,2.82-4,9.18-11.24,11.07-14.99.42-.84,1.27-1.41.23-2.08-9.23-2.35-11.33,8.31-16.84,13.61.13.37.89.64.92.69-2.18,1.62-2.93,2.73-4.61,4.61-1.17,1.3-2.59,2.43-3.23,4.15-.3,0-.62,0-.92,0l4.38-6.46c-7.89.29-8.92-.85-13.15,6.46-.33,0-.62,0-.92,0,2.52-2.58,3.8-6.25,5.53-8.99.55-.86,1.34-.63,1.38-.69.02,3.37,2.42-2.56,4.15-.92-.07.87-.59,1.22-.46,2.08.82,1.25,2.28.65,3.23.69.06,0,.45,1.01.69.92,1.71-.63,9.46-13.48,11.76-15.45l-7.84-.23c.09-.15-.15-.51.46-1.38,1-1.43,2.73-2.83,3.92-4.15,2.52-.34-2.68,3.71-2.54,3.92,4.5,1.51,6.55.94,9.92-2.08.31,1.59-2.58,1.56-.92,2.77,5.37.73,7.29-.45,10.84-4.15Z"/>
    <path class="cls-65" d="M90.63,46.66c-1.69,2.46-11.21,14.51-11.07,16.37.02.24,2.76,1.55,0,3.92-1.8.12-3.87-.41-5.53.46-.16.08-2.12,2.47-2.31,2.77,1.04-5.17,4.83-10.01,6.46-14.76,1.19-.33,1.01-.61,1.38-1.38,1.88-.88,2.74,2.27,3,2.31.65.09,6.55-9.64,7.15-11.07.08.18.69.86.92,1.38Z"/>
    <path class="cls-20" d="M89.71,45.27c-.6,1.43-6.5,11.16-7.15,11.07-.25-.03-1.11-3.18-3-2.31,1.42-3,3.51-8.29,3.69-11.53l3.23-3.23c.95,2.01,2.28,3.94,3.23,6Z"/>
    <g>
      <path class="cls-26" d="M364.61,32.82c-.57,1.05-.66,2.93-1.38,4.15-.32.54-.44.43-.46.46-.1.16-.74.72-.92.92-.42.05-.5-.5-.92-.46.04-2-1.51-3.46-2.31-5.07-2.18-4.4-7.78-13.33-7.38-17.76.79-8.71,12.87-12.31,18.45-5.07s-1.36,15.97-5.07,22.83Z"/>
      <path class="cls-69" d="M359.31,9.3c13.39-2.89,12.74,18.66-.92,13.84-6.02-2.12-5.19-12.52.92-13.84Z"/>
    </g>
    <path class="cls-2" d="M408.43,46.2c1.89,1.36,4.28,5.56,6.23,6.46.51.24,2.23-.19,3,0,.62.15.95.89,1.15.92,1,.18,1.27-.49,1.61-.46,1.11.11,3.2.61,4.15,0,.03.04.73.41.92.46.13.28.31.61.46.92l-7.84,1.61,10.61,10.84c-.3-.02-.62.01-.92,0-7.11-5.53-13.6-15.37-20.29-20.76,1-.78.88,0,.92,0Z"/>
    <path class="cls-30" d="M424.57,50.35c.56,1.11.62,2.57.92,3.23-.19-.05-.89-.42-.92-.46-.98-1.46-1.68-3.28-3.69-3.69.39-1.1.99-1.82,1.38-2.77.13,1.24,1.82,2.73,2.31,3.69Z"/>
    <path class="cls-20" d="M424.57,50.35c-.49-.96-2.18-2.45-2.31-3.69.39-.93.67-2.19.92-2.77l1.38,6.46Z"/>
    <path class="cls-39" d="M353.08,43.43c-.88.64-1.14.25-1.84.92-.82.78-.85,1.77-.92,1.84-1.17-.41-2.38-1.81-2.54-1.84-1.67-.4-4.6.29-6.46,0-.22,1.38,1.73,2.98,2.08,3.69.09.18-.09.73,0,.92h-.46c-.39-.6-.88-.86-.92-.92-.55-.78-1.22-3.2-2.08-3.69-1.55-.89-4.12.61-5.53-.46l-.46.92,2.08,4.15c-.15.01-.31-.01-.46,0-.3.02-.62-.01-.92,0-.72-5.78-3.53-5.36-8.53-5.07l1.15,4.61c-.1-.05-.3.04-.46,0-.14-.03-.31.01-.46,0-1.26-5.79-3.38-4.67-8.53-4.61l-.46.92c-.06.52,1.79,3.74,2.08,4.61.63,1.94,1.18,4.09,1.84,6-.33-.27-.43-.45-.46-.46-.89-1.6-1.86-5.59-3.23-6,.29-2.18-.93-5.99-3.69-5.07.64-1.34,1.24-2.79,1.84-4.15.43,4.33,4.05,3.51,7.61,3.69l-.46-2.77c2.65,3.43,4.39,2.83,8.76,2.77-1.75-6.61.91,2.1,6.92,0l.46-2.77c.84,4.28,3.98,2.41,7.38,2.77,1.58-.92-3.33-3.4-.92-4.15,2.02,4.07,3,4.62,7.61,4.15Z"/>
    <path class="cls-65" d="M304.65,59.11c.23.03.96,2.93,3.23-.46.88,1.92,2.93,2.16,4.84,2.31l-2.08,1.61,3.23,1.38-6.46,3c-.31,0-.62,0-.92,0-.38-.54-.34-.83-.46-1.38-.18-.83-.44-2.87-.92-3.46-.79-.97-1.77-.18-1.84-.23-1.51-1.06-3.7-2.76-5.07-2.77,1.58-.7,4.72-.22,6.46,0Z"/>
    <path class="cls-59" d="M317.57,48.96c1.37.4,2.34,4.39,3.23,6-1.54-.65-7.04-.7-8.76-.46-.46.06-.52.48-.92.46-.35-.62-.53-1.09-1.38-.92.78-1.64,1.55-3.41,2.31-5.07,1.51.27,4.25-.38,5.53,0Z"/>
    <path class="cls-46" d="M311.11,54.96c1.22,2.16,1.54,4.55,2.31,6.69.12.34,1,2.55,1.84,1.61.11.55-.9,2.48.46,3.23v.46c-2.76,0-5.54,0-8.3,0l6.46-3-3.23-1.38,2.08-1.61c-1.91-.15-3.96-.39-4.84-2.31.14-.21,1.42-3.72,1.84-4.61.86-.17,1.03.3,1.38.92Z"/>
    <path class="cls-20" d="M317.57,48.96c-1.28-.38-4.03.27-5.53,0,.63-1.37,1.1-3.51,1.84-5.07,2.76-.92,3.98,2.89,3.69,5.07Z"/>
    <path class="cls-20" d="M98.48,59.11c2.9-2.21-.58-1.01-.92-2.54-.15-.65,4.72-10.86,5.53-12.22l7.84.23c-2.3,1.97-10.05,14.82-11.76,15.45-.25.09-.63-.92-.69-.92Z"/>
    <path class="cls-32" d="M424.57,53.11c-.95.61-3.04.11-4.15,0-.67-1.07.09-2.64.46-3.69,2.01.41,2.71,2.23,3.69,3.69Z"/>
    <path class="cls-21" d="M192.11,51.27c-.03-.13,0-.32,0-.46l7.38,1.15-6.69.69c-.73-.43-.55-.83-.69-1.38Z"/>
    <path class="cls-24" d="M194.87,44.81c0,1.45-.06,3.11-1.84,2.77.61-2.01,1.22-2.31,1.84-3.69v.92Z"/>
    <path class="cls-10" d="M155.67,43.43c-.93.2-1.21.74-1.84,1.38-1.56,1.6-2.59,5.13-3.69,6.92-2.24,3.64-4.57,7.22-6.46,11.07-.3,0-.62,0-.92,0,2.44-3.6,4-7.71,6-11.53,1.07-2.04,3.24-4.36,4.15-6.69-.07-1.03-3.67-.28-4.15-.23-.89.1-.66-1.31-2.77.46-1.24,1.04-3.21,4.32-3.69,6-.27.05-.71.31-.92.46.03-.3-.07-.69,0-.92.31-1.11,1.35-1.95.92-3.46-.77,1.23-4.21,1.07-4.15,0,.04-.66,2.69-.05,3.23-2.08,2.16,1.54,2.16-.85,2.31-.92.11-.06.94.48,2.31-.92-.01.63.48.44.92.46.66.03,5.49.09,5.77,0,1.23-.41,1.07-2.21,1.15-2.31,1.17-1.41,1.76-3.23,4.15-1.61,0,.77-3.52,1.94-2.31,3.92Z"/>
    <path class="cls-20" d="M231.77,68.34v1.38c0,2.23-1.51,19.87-2.31,20.53-.34.28-7.57-.5-8.76-.46l3-20.53c-.69-.28-1.03,1.18-1.15,1.61-1.36,4.99-2.17,13.48-3.23,19.14l-9.69-.23,4.15-20.99c5.93,0,12.01-.46,17.99-.46Z"/>
    <path class="cls-20" d="M138.6,70.18c-2.09,2.56-9.75,18.99-11.3,19.83-1.25.68-7.36-.48-9.22,0l12.22-20.76,8.3.92Z"/>
    <path class="cls-20" d="M162.59,68.34c-.23,1.64,2.07.65,3.23.92l-8.99,21.22-8.53-1.15,10.15-20.06v-.46c1.58,0,2.69-.46,4.15-.46Z"/>
    <path class="cls-20" d="M156.59,70.64c-1.8,3.14-7.7,17.75-9.22,19.14-1,.91-7.69-.18-9.46.23l11.3-20.76c2.02.07,5.03-.1,6.69,0,1.56.1-.24,1.24.69,1.38Z"/>
    <path class="cls-20" d="M101.7,69.26c-2.34,2.22-13.73,20.9-14.99,21.22-.66.17-7.5-.9-8.99-.69l15.68-20.53c2.68-.08,5.58.02,8.3,0Z"/>
    <path class="cls-20" d="M128.92,70.18c-2.51,2.38-10.83,19.22-12.68,19.83-1.61.53-5.87-.39-7.84,0l12.68-20.76c1.49-.21,4.54.1,6.69,0,1.93-.09.33.49,1.15.92Z"/>
    <path class="cls-20" d="M110.47,70.18c-2.52,1.94-12.15,19.32-13.61,19.83-1.6.56-6.29-.41-8.3,0l14.07-20.76c2.07-.02,6.74-.69,7.84.92Z"/>
    <path class="cls-20" d="M92.02,69.72c-2.5,2.38-14.2,19.77-15.91,20.29s-5.8-.38-7.84,0l15.45-20.76c2.43-.33,5.76.55,8.3.46Z"/>
    <path class="cls-20" d="M119.23,70.18c-2.04,2.16-11.53,19.98-12.68,20.29-.53.14-6.88-1.06-8.3-.46l13.61-20.76,7.38.92Z"/>
    <path class="cls-20" d="M147.83,69.72c-1.77,2.27-10.62,20.42-11.76,20.76-.37.11-6.42-.86-7.61-.69l11.53-20.53c2.21-.56,5.79.46,7.84.46Z"/>
    <path class="cls-20" d="M174.58,72.49c-2.66,5.89-4.64,12.09-7.38,17.99l-8.76-.69,8.76-18.68c1.52,4.69,3.34,1.27,7.38,1.38Z"/>
    <path class="cls-20" d="M194.41,71.56c-3.58,1.81-.77,2.67-.92,3.46-.29,1.51-4.98,15.21-5.77,15.45-.41.13-7.23-.88-8.53-.69,1.37-4.15,3-8.18,4.61-12.22l7.38-.69c-1.62-.9-3.04-2.6-4.61-3.46.9-3.33,5.61-2.1,7.84-4.15.42,1.47.19.98,0,2.31Z"/>
    <path class="cls-20" d="M211.48,76.18c-.37,1.74-2.37,13.51-3,13.84-.4.21-8.71.12-8.99-.23l2.77-12.22c1.06-.09,7.07-.96,6.92-2.08-1.57-1.28-3.65-1.33-5.53-1.61l.92-4.15c6.69.81,1.72,3.17,6.92,6.46Z"/>
    <path class="cls-20" d="M166.74,91.4c-2.25,4.75-4.59,9.38-7.38,13.84-1.33-.03-9.52.45-9.69-.69,1.78-1.32,7.7-13.29,8.53-13.61,1.14-.44,6.97,0,8.53.46Z"/>
    <path class="cls-20" d="M201.79,77.56c-1.08,1.6-2.45,11.61-3.23,12.22-.94.74-7.34-.08-8.99.23-1.17-.67,3.98-11.62,4.38-12.91,2.64.16,5.17.59,7.84.46Z"/>
    <path class="cls-20" d="M183.34,75.25c.02,1.37-1.84,4.89-2.31,6.46-.91-.81-.23-1.02-1.61-.46-2.71,1.1-5.83,4-8.99,4.61,1.41-3.86,4.81-10.88,5.53-14.3,3.32.62,7.32-.95,7.38,3.69Z"/>
    <path class="cls-48" d="M158.44,68.8v.46c-.88-.16-1.52.82-1.84,1.38-.93-.14.87-1.29-.69-1.38-1.65-.1-4.67.07-6.69,0-.9-.03-1,.46-1.38.46-2.05,0-5.63-1.02-7.84-.46l-1.38.92-8.3-.92c-.92-.17-.8.37-1.38.92-.83-.43.78-1.01-1.15-.92-2.14.1-5.2-.21-6.69,0-1.06.15-1.04.49-1.84.92l-7.38-.92c-.35.07-1.04.66-1.38.92-1.1-1.61-5.77-.95-7.84-.92-.31,0-.62,0-.92,0-2.72.02-5.62-.08-8.3,0-.88.03-1.01.45-1.38.46-2.55.09-5.87-.79-8.3-.46-.16.02-.34-.04-.46,0v-.46c25.11-.85,50.13.05,75.18,0Z"/>
    <path class="cls-62" d="M174.58,68.34c3.87,0,7.72.47,11.53.46l-2.31,6-.46.46c-.06-4.64-4.06-3.07-7.38-3.69.15-.72.65-1.3-.23-1.84-.53.87-.74,1.85-1.15,2.77-4.04-.11-5.86,3.31-7.38-1.38-.4-1.23,1.76-1.11-1.38-1.84-1.16-.27-3.46.72-3.23-.92,3.99,0,8,0,11.99,0Z"/>
    <path class="cls-20" d="M181.04,81.71c-.95,3.21-1.98,5.71-3.23,8.76l-8.99-.46c-.74-.4,1.46-3.74,1.61-4.15,3.16-.62,6.28-3.51,8.99-4.61,1.39-.56.71-.35,1.61.46Z"/>
    <path class="cls-32" d="M83.25,68.8v.46c-1.76.58-6.57,8.99-7.61,9.22-.33.07-5.57-1.45-6.69-1.38.07-.08.28-1.06.92-1.84.24-.3.61-.52.92-.92,4.77,2.78,5.99-5.85,11.07-4.84l-5.53-1.15c2.31-.38,5.11.52,6.92.46Z"/>
    <path class="cls-40" d="M200.41,68.34c4.29,0,8.7.47,12.91.46-.78,2.42-1.32,4.9-1.84,7.38-5.2-3.29-.23-5.65-6.92-6.46-1.79-.22-.7.47-.92.46-2.55-.12-5.22-.86-7.84-.46.03-.41-.7-.65-.46-1.38,1.69,0,3.39,0,5.07,0Z"/>
    <path class="cls-44" d="M202.72,73.87c.3.03.63-.04.92,0,1.88.28,3.96.33,5.53,1.61.15,1.11-5.86,1.99-6.92,2.08-.15.01-.31,0-.46,0-2.67.13-5.2-.31-7.84-.46.12-.37-.11-1.01,0-1.38,3.49-2.51,4.04-2.31,8.76-1.84Z"/>
    <path class="cls-60" d="M175.96,71.56c-.73,3.42-4.12,10.44-5.53,14.3-.15.41-2.35,3.75-1.61,4.15l8.99.46c-.26.63-.45.43-.46.46-2.05.44-7.43-.6-8.99,0-.75.29-6.81,12.39-7.15,14.3-.63.02-1.2.01-1.84,0,2.79-4.45,5.13-9.09,7.38-13.84.15-.32.31-.6.46-.92,2.74-5.9,4.72-12.1,7.38-17.99.41-.92.63-1.9,1.15-2.77.88.54.38,1.12.23,1.84Z"/>
    <path class="cls-20" d="M203.64,70.18l-.92,3.69c-4.72-.46-5.27-.66-8.76,1.84.14-.47.31-.83.46-1.38.27-1,1.34-4.05,1.38-4.61,2.62-.4,5.29.34,7.84.46Z"/>
    <path class="cls-42" d="M194.41,68.34c.03.3-.07.69,0,.92-2.24,2.05-6.94.82-7.84,4.15-.64-.35-.33-.46-.69-.92-.81.6-1.21,1.42-1.61,2.31h-.46l2.31-6c2.65,0,5.55-.46,8.3-.46Z"/>
    <path class="cls-32" d="M186.57,73.41c1.57.86,2.99,2.56,4.61,3.46l-7.38.69c.2-.5.26-2.33.46-2.77.41-.88.81-1.7,1.61-2.31.36.46.05.57.69.92Z"/>
    <path class="cls-60" d="M195.34,68.34c-.24.73.49.97.46,1.38-.04.56-1.12,3.61-1.38,4.61-1.54-.48-.2-1.39,0-2.77s.42-.84,0-2.31c-.07-.24.03-.63,0-.92.3,0,.62,0,.92,0Z"/>
    <path class="cls-20" d="M353.54,68.34c.15,2.96,3.14,4.86,3.23,7.84-6.18-.12-3.23,4.62,1.84,3.23,2.88,2.87,4.19,7.34,6.92,10.38-.28.38-9.02.42-9.46.23-1.29-.56-8.51-18.85-11.07-20.76l9.92,20.06c-.22.98-8.37.93-8.99.69-1.4-.54-7.9-18.56-10.15-20.76l8.99,20.53c-.15.4-7.69.82-8.07.69-2.04-.68-8.51-21.98-10.15-21.22l8.53,20.53c-1.4-.2-9,.84-9.46.69-1.17-.37-7.6-21.68-8.76-21.22l7.61,20.53c-.31.39-9.48.47-9.92.23-.82-.44-5.91-16.84-5.77-17.76.32-2.01,4.26-.75,4.15-2.31l-4.61-1.61c15.06.02,30.14-.04,45.2,0Z"/>
    <path class="cls-20" d="M375.68,68.34c.02,2.55,5.47,2.92,7.84,4.15,1.17.61,1.85,2.43,3.23,2.08l-2.31-4.38c1.9.2,6.5.72,5.53-1.84,3.68.02,7.39-.03,11.07,0l15.68,21.45c-.27.97-9.02.4-9.46.23-1.2-.47-12.21-18.89-15.22-20.76l14.53,20.53c-.12.6-8.57.38-8.99.23-.59-.21-6.57-9.01-6.69-10.61,10.61.56-1.31-6.72-2.31-4.84-.03.06.88.77.46,1.38-.62.91-4.26.36-3.23,2.08-.32-.01-3.84,2.09-6,.46-2.28-3.39-4.79-6.65-6.92-10.15.92,0,1.85,0,2.77,0Z"/>
    <path class="cls-20" d="M372.45,68.34l13.84,21.45c-.27.75-9,.39-9.46.23-.69-.24-7.16-10.71-7.61-12.45,1.03-.53,2.37-.23,2.31-1.15-5.73-1.79-1.99-.73-3.69-4.61-.84-1.93-2.23-2.07-3.23-3.46,2.61,0,5.23,0,7.84,0Z"/>
    <path class="cls-20" d="M306.96,68.34l-6,1.15c0,.63,5.68-.19,6.46.46s5.07,17.41,6,19.83l-8.3.23c-.03-.12-1.12-1.1-1.38-2.08-1.77-6.5-2.97-13.19-5.07-19.6,2.76,0,5.54,0,8.3,0Z"/>
    <path class="cls-20" d="M319.41,105.23c-1.77-.4-8.91.54-9.92,0-.47-.25-3.57-7.6.69-7.15.05-.53-3.01-1.56-3.69-1.61-1.15-1.59-.95-3.98-1.38-5.53,2.01.38,7.87-.81,9.22.69.49.54,4.63,12.03,5.07,13.61Z"/>
    <path class="cls-20" d="M367.84,78.94c1.19.17,5.69,7.05,6.46,8.53.29.56,1.74,2.66.69,3-1.36-.7-7.9.11-8.3,0-.62-.17-5.89-9.67-6.69-11.07,1.98.63,6.41-.67,7.84-.46Z"/>
    <path class="cls-20" d="M389.52,79.87c1.17.59,5.34,8.54,6.92,9.92-.29.88-8.38.44-8.99.23s-5.74-8.81-6.69-10.15c2.07-.53,6.97-.91,8.76,0Z"/>
    <path class="cls-44" d="M364.61,68.34c1,1.39,2.39,1.53,3.23,3.46,1.7,3.88-2.04,2.82,3.69,4.61.07.92-1.28.62-2.31,1.15-.42.22-.88.99-1.38,1.38-1.43-.21-5.87,1.09-7.84.46-.67-1.16-1.18-2.53-1.84-3.69l4.15-1.15-3.23-2.77c1.75-2.41,5.42.3,4.61-3.46.3,0,.62,0,.92,0Z"/>
    <path class="cls-20" d="M363.69,68.34c.81,3.76-2.86,1.05-4.61,3.46l3.23,2.77-4.15,1.15c-1.38-2.42-3.3-4.66-4.15-7.38,3.22,0,6.46,0,9.69,0Z"/>
    <path class="cls-44" d="M390.9,79.41c-.46-.02-.93.04-1.38,0-.51-.05-1.87-1.31-3.69-1.38-1.03-1.72,2.61-1.17,3.23-2.08.42-.62-.5-1.32-.46-1.38,1-1.88,12.91,5.4,2.31,4.84Z"/>
    <path class="cls-32" d="M389.52,79.41v.46c-1.8-.91-6.69-.53-8.76,0-.31-.44-.62-.93-.92-1.38,2.15,1.63,5.67-.47,6-.46,1.82.08,3.18,1.34,3.69,1.38Z"/>
    <path class="cls-20" d="M278.36,68.34c.51,3.55,4.66,18.06,4.15,20.53-.12.58-.18.78-.69,1.15-1.35-.21-8.56.37-8.99-.23-.73-1.03-.99-17.91-2.08-20.53l1.15,20.53c-.27.39-9.04.45-9.46.23-.78-.42-1.04-13.15-1.15-15.22s.01-4.32-.46-6.46c5.84,0,11.69,0,17.53,0Z"/>
    <path class="cls-20" d="M251.61,68.34l-.69,21.68-9.92-.69,1.15-20.06-1.61,20.06-10.15.46c.34-5.99,2.08-12.83,2.31-18.68,1.98.58,4.17-.3,6-.92.96-.33,2.4-.35,2.31-1.84,3.53,0,7.08,0,10.61,0Z"/>
    <path class="cls-20" d="M298.19,68.34l4.84,22.14c-1.76-.34-8.02.76-8.99-.69-.51-.76-3.75-17.07-3.69-17.99.11-1.67.48-1.45,1.84-1.84l-2.31-.69v-.46c2.65,0,5.55-.46,8.3-.46Z"/>
    <path class="cls-20" d="M281.59,68.34c1.57,2.18,5.35,3.5,7.84,3.69.22,2.23,4.66,17,4.15,17.76-1.85,0-8.71.76-9.92.23-1-.44-3.55-19.12-3.46-21.68.46,0,.93,0,1.38,0Z"/>
    <path class="cls-20" d="M305.57,96.47c-.59.06-2.65.61-2.77,1.15,3.49,2.29,4.81,2.42,5.53,7.38-.5.69-8.17-.09-9.69.23-3.15-3.03-2.74-9.52-4.15-13.61,5.79-1.41,10.46-2.26,11.07,4.84Z"/>
    <path class="cls-20" d="M260.83,80.79c.15,3,.4,5.98.46,8.99l-8.99.23c-.98-.7.27-9.14.23-10.61,3.13.24,5.94-.9,8.3,1.38Z"/>
    <path class="cls-20" d="M260.37,68.34c-.15,1.33-.16,9.95-.46,10.38-.42.59-6.19.03-7.38.23,0-3.42-.95-7.11-.46-10.61,2.76,0,5.54,0,8.3,0Z"/>
    <path class="cls-44" d="M289.89,68.8v.46c.47.88-.47,2.63-.46,2.77-2.49-.19-6.27-1.51-7.84-3.69,2.75,0,5.65.46,8.3.46Z"/>
    <path class="cls-32" d="M261.29,74.79c-1.33-.09-.54,4.39-.46,6-2.36-2.28-5.17-1.15-8.3-1.38,0-.23,0-.27,0-.46,1.19-.2,6.96.36,7.38-.23.3-.42.31-9.05.46-10.38.15,0,.31,0,.46,0,.48,2.14.34,4.29.46,6.46Z"/>
    <path class="cls-42" d="M234.08,68.34c-1.21,2.52,2.79.76,4.61,1.84-1.83.63-4.02,1.5-6,.92.03-.73-.18-1.19-.92-1.38v-1.38c.77,0,1.54,0,2.31,0Z"/>
    <path class="cls-60" d="M438.87,88.63s.06.54-.46.46c-6.61-5.87-11.93-13.19-17.99-19.6l18.45,19.14Z"/>
    <path class="cls-20" d="M213.79,66.95c-3.38,0-6.77,0-10.15,0-2.32,0-4.53.46-6.92.46.79-2.99,5.92-22.91,7.61-23.52.65-.24,5.88-.22,6.23.69l-5.77,21.91c3.09-3.72,4.07-19.14,6.23-21.91.86-1.1,6.97-1.04,7.38,0-.45.98-.59,4.54-.92,5.07-.69,1.09-2.25.48-2.31.92-.04.3,1.57.07,1.84.92.3.93-3.62,13.13-3.23,15.45Z"/>
    <path class="cls-20" d="M406.12,44.81c.09.05.86.96,1.38,1.38,6.69,5.38,13.18,15.22,20.29,20.76-3.2-.11-6.48-.03-9.69,0-1.13-2.23-3.36-4.13-5.07-6-5.11-5.57-10.16-11.2-15.68-16.37,2.85-.07,6.57-1.01,8.76.23Z"/>
    <path class="cls-20" d="M270.06,66.95c-3.07,0-6.16,0-9.22,0,.82-3.64-1.08-20.29,0-22.37.62-1.2,6.6-.46,6.92,0,.9,1.29.84,19.36,2.31,22.37Z"/>
    <path class="cls-20" d="M260.37,66.95c-2.76,0-5.54,0-8.3,0l.46-17.07c1.84-.16,3.69-.5,5.53-.69-1.23-1.95-3.01-2.15-5.07-2.08l.23-3.23,6.69.69.46,22.37Z"/>
    <path class="cls-20" d="M270.06,44.35c.88-.4,1.94.47,2.31.46-2.04,2.62,1.51,4.61,3.69,6,0,.06.87.32.92.69.7,4.94.78,10.08,1.84,14.99v.46c-2.75,0-5.54,0-8.3,0,.57-5.64-3.12-17.47-1.84-22.37.12-.45,1.3-.12,1.38-.23Z"/>
    <path class="cls-62" d="M278.36,44.35c2.28,2.83,1.43,6.09,6,4.61.64,2.22,3.26,10.58,2.77,12.22-.04.12-1.21.56-1.84,1.61-.74,1.22-1.23,1.64-2.31,2.54l3.23,2.08c-2.23,0-4.86-.46-7.38-.46v-.46l-2.31-21.68c.33,0,.75-.5,1.84-.46Z"/>
    <path class="cls-20" d="M251.61,50.35v16.6c-2.92,0-5.85,0-8.76,0,.49-3.64.04-8.05.92-11.53.65-2.56-.87-2.73,3.23-3l-2.54-2.54c1.95-.57,5.67.58,7.15.46Z"/>
    <path class="cls-43" d="M331.86,61.42c.06.01.3.85.69.92.36.07.18-.93.23-.92,2.88.55,5.9.8,8.76,1.38.08.02-.02.62,1.38.92,2.21.47,5.6.49,7.38.92.76.19,1.43,1.37,2.08,1.84.04-.55-.51-2.34-.69-2.77,2.13-.71,4.24-1.03,6.46-1.38l3.69,4.61c-15.31-.02-30.76.01-46.12,0v-.46c2.95-.42,6.27-.81,9.22-.92.11,0,.48.01.92,0,2.52-.08,5.09.13,7.61,0,1.71-.09,1.47-.34,2.77-.46,1.61-.15,3.96.49,5.3-.23-5.12-2.33-11.01-2-16.6-2.08-.41-.97-2.92-6.54-3.23-6.92,2.91-.31,1.67,2.95,3,4.15.74.67,5.73,1.12,7.15,1.38Z"/>
    <path class="cls-44" d="M233.16,57.73l-.23,7.84.69-8.3c.15-.12,3.51.61,3.69,1.15.05.15-1.78,2.26-.69,3,.51.34,3.11-.68,3.92,1.15l-4.84,2.08,6.23-.46c-1.25,3.14-2.52,1.55-5.77,1.84-2.01.18-.7.17-.23.92-3.84,0-7.69,0-11.53,0l.92-6c.15-.03.32.04.46,0,1.5-.37,3.14-1.07,4.61-1.61-6.67-.41-.18-3.18,2.77-1.61Z"/>
    <path class="cls-44" d="M298.19,59.11c1.37,0,3.56,1.71,5.07,2.77,1.6,4.48-3.05,1.06-4.15,3.92l6.92-.23c.12.55.08.84.46,1.38-6.77,0-13.58.47-20.29.46l-3.23-2.08c1.07-.9,1.57-1.32,2.31-2.54,3.68-1.09,2.48,1.05,3.46,3.69.96.07.3-2.31.23-2.77l7.84-.46c.27.74.17,2.62,1.38,3,.12-3.17-3.13-5.77,0-7.15Z"/>
    <path class="cls-68" d="M150.6,66.95c2.74,0,5.54,0,8.3,0,.3,0,.62,0,.92,0,2.76,0,5.54,0,8.3,0,.3,0,.62,0,.92,0,8.93-.02,17.82.01,26.75,0,.05,0-.23.46.92.46,2.38,0,4.6-.46,6.92-.46.23,1.87-2.37.17-3.23,1.38-1.69,0-3.39,0-5.07,0-.3,0-.62,0-.92,0-2.75,0-5.65.46-8.3.46-3.81,0-7.66-.47-11.53-.46-5.97-2.24-29.49,1.42-33.44-.46-.43-.2-.16-.89-.23-.92,3.22,0,6.46,0,9.69,0Z"/>
    <path class="cls-44" d="M412.12,60.96s-.07.78.92,0c1.71,1.86,3.94,3.77,5.07,6-3.41.04-6.75-.01-10.15,0-.59-.83-1.87-2.43-2.77-2.77-.09-.51.18-1.01.46-1.38.69-.93.85-2.62,1.61-2.77s3.84.65,4.84.92Z"/>
    <path class="cls-60" d="M270.06,43.43s.03.88,0,.92c-.09.11-1.27-.22-1.38.23-1.28,4.9,2.42,16.73,1.84,22.37-.15,0-.31,0-.46,0-1.46-3.01-1.4-21.08-2.31-22.37-.32-.46-6.3-1.2-6.92,0-1.08,2.08.82,18.73,0,22.37-.15,0-.31,0-.46,0l-.46-22.37-6.69-.69-.23,3.23c-.3.01-.67-.06-.92,0,1.03-4.5-3.51-3.48-6.46-2.77-.08-.07.08-.87,0-.92,2.07-.01,4.15.02,6.23,0,.24,0,.82,0,.92,0,1.26-.06,5.88.26,6.46,0,1.46-.66-.5-3.55,2.77-2.77l-1.61,1.15c.49,3.32,1.45.2,1.61.23.44.09,2.62,2.54,5.07,1.38,1.43-1.12.23-2.3.23-3.69,1.73-.31.53,2.2.92,3,.49.99,1.78.62,1.84.69Z"/>
    <path class="cls-46" d="M395.98,63.72c.89.98,1.67,2.31,3,2.77-.04-1.35-1.32-2.19-2.08-3.23,1.9,1.59,4.4.14,6,.46.53.11,2.1.38,2.31.46.9.34,2.18,1.93,2.77,2.77-5.84.02-11.67,0-17.53,0-.86-.77-1.33-2.51-1.84-3.23h7.38Z"/>
    <path class="cls-20" d="M363.23,61.88c.36,1.89,3.72.52,4.84.92.24.09,2.54,3.58,3,4.15-3.05,0-6.15,0-9.22,0l-3.69-4.61c2.11-.34,2.99-.41,5.07-.46Z"/>
    <path class="cls-20" d="M376.6,62.34c1.54,1.44,2.12,2.93,3.69,4.15v.46c-2.9,0-5.84,0-8.76,0l-2.77-4.61c2.6.13,5.24-.1,7.84,0Z"/>
    <path class="cls-44" d="M389.98,68.34c.97,2.57-3.64,2.04-5.53,1.84-.44-.05-.81-1.74-2.31-.69l1.38,3c-2.37-1.24-7.83-1.6-7.84-4.15,4.76.02,9.54-.03,14.3,0Z"/>
    <path class="cls-46" d="M387.67,64.18c.73.99,1.77,1.87,1.84,3.23-3.07,0-6.24-.46-9.22-.46v-.46c-1.26-3.69,4.86-1.91,7.38-2.31Z"/>
    <path class="cls-48" d="M223.47,65.11c-.11.57.07,1.26,0,1.84-3.07,0-6.16,0-9.22,0-.04-1.01,1.31-3.31,1.38-3.69.6.13.91-.23,1.38-.46.69,1.89,4.73,2.13,6.46,2.31Z"/>
    <path class="cls-60" d="M375.68,47.12c3.78,5.85,8.87,11.01,12.91,16.6.52.71.98,2.46,1.84,3.23-.44,0-.48.46-.92.46-.08-1.35-1.11-2.24-1.84-3.23-4.25-5.72-8.88-11.18-12.91-17.07.31,0,.62.01.92,0Z"/>
    <path class="cls-39" d="M243.77,55.42c-.88,3.48-.43,7.89-.92,11.53-2.3,0-4.62,0-6.92,0-.47-.76-1.78-.74.23-.92,3.25-.3,4.51,1.29,5.77-1.84.93-2.34.39-6.16.92-8.76.24-.07.63.03.92,0Z"/>
    <path class="cls-60" d="M252.07,66.95c-.15,0-.31,0-.46,0v-16.6c.44-.03.48-.42.92-.46l-.46,17.07Z"/>
    <path class="cls-66" d="M241,68.34c.1,1.5-1.35,1.52-2.31,1.84-1.82-1.09-5.82.67-4.61-1.84,2.3,0,4.62,0,6.92,0Z"/>
    <path class="cls-60" d="M368.76,62.34l2.77,4.61c-.15,0-.31,0-.46,0-.46-.57-2.76-4.07-3-4.15-1.13-.4-4.48.97-4.84-.92,1.96-.05,3.62.36,5.53.46Z"/>
    <path class="cls-18" d="M225.32,60.96l-.92,6c-.3,0-.62,0-.92,0,.07-.59-.11-1.28,0-1.84.25-1.33,1.15-2.69.92-4.15.26-.07.66.06.92,0Z"/>
    <g>
      <path class="cls-28" d="M456.86,27.28c6.54,6.46,10.77,12.15,9.69,21.91-1.41,12.7-17.1,18.71-18.91,36.44-.33,3.2,3.07,5.45-1.38,6.23-.02-1.98-1.85-5.09-4.15-5.07.38-2.75-2.99-7.6-4.61-10.15-.78-1.22-.89-2.48-2.31-4.15-.19-1.63-1.56-2.8-2.31-4.15-.09-.16-.18-.87-.46-1.38-1.83-3.37-3.4-6.7-5.07-10.15,2.65-1.3,3.26,2.01,4.84,3.23,2.95,2.29,6.93,5,10.84,3.46-6.18-2.65-11.46-5.31-14.3-11.76l.92-12.22c1.4-5.95,8.72-7.01,9.69-11.76,6.06-1.7,10.29.22,15.68-.23l-3.23-2.54c1.49.39,3.71,1.52,5.07,2.31Z"/>
      <g>
        <path class="cls-20" d="M443.25,30.05c24.42-2.58,25.6,34.36.92,31.83-18.91-1.94-18.66-29.95-.92-31.83Z"/>
        <path class="cls-15" d="M456.4,36.51c-1.3,9.83-9.14,17.87-17.99,21.68-19.01-12.02,4.14-37.41,17.99-21.68Z"/>
        <path class="cls-15" d="M438.41,58.19c8.85-3.81,16.69-11.84,17.99-21.68,11.42,12.97-3.05,31.12-17.99,21.68Z"/>
      </g>
    </g>
    <path class="cls-44" d="M286.66,42.97c-.04.29.07.71,0,.92-.81,2.33,4.44,2.79,5.07,3.23.44.31.43.44.46.46.88,2.16.8,5.94,1.38,7.84.52,1.69,1.18,1.21,1.38,1.84.63,1.98,1.15,4.04,1.84,6l-7.84.46c-.77-5.05-2.95-16.25-4.15-20.76.61,0,1.23-.01,1.84,0Z"/>
    <path class="cls-18" d="M276.98,40.2c-3.1,4.65,2.79,2.94,5.77,3.23,1.25-.5.12-2.33-.23-3.23.43.07.62-.94,1.38.23-.7,1.49.89,2.41.92,2.54,1.21,4.5,3.39,15.71,4.15,20.76.07.46.73,2.84-.23,2.77-.98-2.64.22-4.78-3.46-3.69.64-1.05,1.81-1.5,1.84-1.61.49-1.65-2.13-10-2.77-12.22-.38-1.3.16-3.64-1.15-5.07-1.27.77-3.39.52-4.84.46-1.09-.04-1.51.46-1.84.46-.3,0-.61,0-.92,0-1.07,0-2.13-.01-3.23,0-.36,0-1.42-.86-2.31-.46.03-.04.03-.89,0-.92,3.24.39,1.27-1.44,1.38-1.84,1.59-1.13.52,1.06,1.15,1.38,3.48,1.75,3.96-2.43-.23-2.77,2.07-1.66,2.07-1.62,5.3-1.38l-3.92,1.15c.96.44,2.18.19,3.23.23Z"/>
    <path class="cls-44" d="M282.51,40.2c.35.9,1.48,2.73.23,3.23-2.97-.29-8.86,1.43-5.77-3.23,1.69.07,4.01-.26,5.53,0Z"/>
    <path class="cls-44" d="M272.36,40.2c4.19.34,3.71,4.51.23,2.77-.64-.32.44-2.52-1.15-1.38.1-.37-.48-.58-.46-.69.11-.68,1.32-.64,1.38-.69Z"/>
    <g>
      <path class="cls-43" d="M296.35,42.97c-1.44.07-2.8-.31-4.15.46l-1.15-2.77c-.52,4.41-.96,2.38-4.38,2.31-.61-.01-1.23,0-1.84,0-.03-.13-1.63-1.05-.92-2.54-.77-1.17-.95-.16-1.38-.23-1.53-.26-3.84.07-5.53,0-1.04-.04-2.27.21-3.23-.23l3.92-1.15c-3.23-.23-3.24-.27-5.3,1.38-.06.05-1.27.02-1.38.69-.02.11.56.33.46.69-.11.4,1.86,2.24-1.38,1.84-.06-.08-1.35.3-1.84-.69-.39-.79.81-3.31-.92-3,0-.45.69-.65.46-1.38,7.37-.03,16.75.64,23.75,0,1.26-.12,1.83.45,1.61-1.38.99,2,2.18,4.01,3.23,6Z"/>
      <path class="cls-60" d="M292.2,43.43c-.7.4-.28.87-.92.92-1.24-.96-3.19-.26-4.61-.46.07-.21-.04-.63,0-.92,3.42.08,3.86,2.1,4.38-2.31l1.15,2.77Z"/>
      <path class="cls-1" d="M290.12,38.82c.9-.27,1.79.29,2.54.69l-3,.23c-.45-.23.33-.88.46-.92Z"/>
    </g>
    <path class="cls-46" d="M294.96,57.27c-.2-.64-.86-.15-1.38-1.84l4.61.69-3.23,1.15Z"/>
    <g>
      <path class="cls-49" d="M312.49,5.61c6.37,1.67,10.28,11.67,9.69,17.76-.9,9.2-7.81,11.1-11.07,17.07-2.18,3.99-3.61,12.04-5.07,16.6-.25.78-.58,1.34-1.38,1.61-.67-1.43-1.6-2.75-2.31-4.15-1.81-3.57-3.66-7.07-5.53-10.61-.16-.29-.31-.63-.46-.92-1.05-1.99-2.24-4-3.23-6-.74-1.5-1.71-2.88-2.31-4.15-1.26-2.67-3.11-5.36-3.69-8.3,3.34.02,1.24-2.92,1.84-5.3,2.74-10.87,12.59-16.47,23.52-13.61Z"/>
      <path class="cls-45" d="M314.8,11.6c-.52-.41-.94-.33-1.38-.46-1.55-2.19-4.89-3.12-7.38-3.23-13.5-.58-19.6,16.25-8.3,23.98,5.88,4.03,13.73,3.23,18.45-2.31-.28,1.95-5.48,5.55-7.15,6-7.25,1.92-17.25-3.9-18.22-11.76-1.64-13.3,14.99-23.42,23.98-12.22Z"/>
      <path class="cls-48" d="M313.41,11.14c.44.13.87.05,1.38.46,3.81,4.74,5.4,11.24,1.38,16.6-.53.71-1.99,1.14-2.31,1.38,4.07-4.68,4.48-11.53.46-16.37-.35-.42-2.19-1.05-2.31-1.15-2.39-2.05-.84-1.6,1.38-.92Z"/>
      <path class="cls-4" d="M316.18,29.59c-4.72,5.53-12.57,6.33-18.45,2.31.64-.39,1.67-.17,2.31,0,6.18,1.66,8.62,1.74,13.84-2.31.31-.24,1.78-.68,2.31-1.38-.04.45.06.94,0,1.38Z"/>
      <path class="cls-40" d="M313.41,11.14c-2.23-.68-3.77-1.13-1.38.92,1.29,7.73-6.47,16.41-13.38,18.45-1.04-.81-4.79-4.34-5.07-5.3-2.3-7.89,2.81-14.63,10.38-16.37,1.45-.33,1.68,2.16,2.08-.92,2.49.11,5.83,1.04,7.38,3.23Z"/>
      <path class="cls-48" d="M306.03,7.91c-.4,3.08-.63.59-2.08.92-7.57,1.74-12.68,8.48-10.38,16.37.28.96,4.03,4.49,5.07,5.3.24.18,2.17,1.18,1.38,1.38-.63-.17-1.66-.39-2.31,0-11.3-7.73-5.2-24.56,8.3-23.98Z"/>
      <path class="cls-58" d="M313.88,29.59c-5.21,4.04-7.66,3.97-13.84,2.31.79-.21-1.15-1.2-1.38-1.38,6.91-2.04,14.67-10.72,13.38-18.45.12.1,1.96.73,2.31,1.15,4.01,4.85,3.6,11.7-.46,16.37Z"/>
    </g>
    <path class="cls-20" d="M291.27,44.35c.11.09,1,2.29.46,2.77-.63-.44-5.89-.9-5.07-3.23,1.43.2,3.38-.5,4.61.46Z"/>
    <g>
      <path class="cls-67" d="M72.18,25.9c10.81,5.3,13.35,17.76,6,27.21-1.87,2.4-5.65,3.86-6.92,7.15l-5.07,16.84s-.14.08-.46-.46c-.69-1.17-1.19-2.5-1.84-3.69-.43-.78-.98-1.56-1.38-2.31-.97-1.8-1.78-3.74-2.77-5.53-1.35-2.46-2.88-4.89-4.15-7.38-1.89-3.69-6.45-10.22-6.92-14.07-1.54-12.73,11.61-23.59,23.52-17.76Z"/>
      <path class="cls-64" d="M81.41,33.74c1.45,3.06,2.04,5.35,1.84,8.76s-2.27,8.53-3.69,11.53c-.37.78-.2,1.05-1.38,1.38.07-.22.35-1.92,0-2.31,7.35-9.46,4.81-21.92-6-27.21,3.72-.02,7.73,4.68,9.22,7.84Z"/>
      <path class="cls-38" d="M77.72,36.97c.46,1.51.56,3.5.46,5.07s-.77,3.16-1.38,4.61c-5.48,5.56-10.33,9.16-17.53,3.69,3.13,1.48,10.4-7.03,11.53-9.46,1.38-2.96,2.25-6.29,0-8.99,3.37-1.13,4.34,4.25,6.92,5.07Z"/>
      <path class="cls-11" d="M76.8,35.13c-5.53-10.1-22.41-6.52-23.52,4.84-1.33,13.61,18.1,19.53,23.52,6.69.61-1.45,1.29-3.03,1.38-4.61,2.81,9.29-8.43,15.15-16.84,12.91-6.93-1.84-9.57-8.36-8.99-14.99.75-8.61,9.16-14.98,18.22-12.22,3,.91,5.67,4.61,6.23,7.38Z"/>
      <path class="cls-19" d="M76.8,35.13c.29.53.76,1.32.92,1.84-2.58-.82-3.55-6.2-6.92-5.07-5.43-6.54-21.99,4.28-14.3,15.91.1.16,2.62,2.42,2.77,2.54,7.2,5.47,12.05,1.87,17.53-3.69-5.42,12.85-24.85,6.92-23.52-6.69,1.11-11.36,17.99-14.94,23.52-4.84Z"/>
      <path class="cls-69" d="M70.8,31.9c2.25,2.71,1.38,6.03,0,8.99-1.13,2.43-8.4,10.94-11.53,9.46-.15-.11-2.66-2.38-2.77-2.54-7.69-11.63,8.87-22.45,14.3-15.91Z"/>
    </g>
    <path class="cls-52" d="M74.49,68.8c-.29.2-2.95,4.57-3.69,5.53-.31.41-.68.63-.92.92-.08-1.66.98-3.74,1.84-5.07.19-.29,2.15-2.68,2.31-2.77l.46,1.38Z"/>
    <path class="cls-44" d="M235.46,41.12c1.96-.3-.24,1.77.69,2.31.94.21.44-.88,1.15-.92,3.26-.2,3.89.26,6.46.92.8.2,1.13-.6,1.38-.46.58.31.43.44.46.46.08.05-.08.85,0,.92,1.39,1.23,3.68,5.11,4.84,4.61.69-.3-1.2-1.18,1.61-1.84.25-.06.62.01.92,0,2.07-.08,3.84.12,5.07,2.08-1.85.19-3.69.53-5.53.69-.44.04-.48.43-.92.46-1.48.12-5.2-1.03-7.15-.46l2.54,2.54c-4.1.27-2.58.44-3.23,3-.3.03-.68-.07-.92,0-.86.24-1.56,1.68-2.08,1.84-4.31,1.41-10.15-2.71-14.07-4.15-2.88-1.06-5.54-2.01-8.76-1.84.37-1.41.78-1.82.92-2.31,1.14-1.75,4.58-1.92,2.77-4.61,4.34-.58,3.6-.03,4.15,2.31l-4.61,2.54,5.07-.23c.06.35-1.09,1.12.69,1.38,1.69-2.81-1.17-6.84,3.46-6.69-2.33-.45-2.04-1.17-.46-2.54,1.59.05,4.07.21,5.53,0Z"/>
    <path class="cls-37" d="M237.77,41.12c-.11.22-1.41.28-.46,1.38-.71.04-.21,1.13-1.15.92-.93-.53,1.27-2.6-.69-2.31.19-.03,1.4-2.64,2.31,0Z"/>
    <g>
      <path class="cls-20" d="M267.75,38.35c.23.74-.46.94-.46,1.38,0,1.39,1.2,2.57-.23,3.69-2.45,1.16-4.63-1.29-5.07-1.38-.17-.04-1.12,3.09-1.61-.23l1.61-1.15c-3.27-.78-1.31,2.11-2.77,2.77-.58.26-5.19-.06-6.46,0-.1,0-.69,0-.92,0-2.08.02-4.16-.01-6.23,0-.03-.02.11-.15-.46-.46l.46-2.08-1.15-.23-.69,2.77c-2.56-.66-3.2-1.12-6.46-.92-.95-1.1.35-1.16.46-1.38.46-.9.75-1.78.92-2.77,4.68,0,9.38-.02,14.07,0,.36,0,.58,0,.92,0,4.69.02,9.39.02,14.07,0Z"/>
      <path class="cls-1" d="M244.46,38.82c.44-.1,2.66-.34,2.54.69l-3.46.69c-.78-.58.69-1.33.92-1.38Z"/>
      <path class="cls-1" d="M259.22,38.82l3.46.69c-.38.28-4.47.76-3.46-.69Z"/>
      <path class="cls-14" d="M245.15,42.97c-.26-.14-.59.67-1.38.46l.69-2.77,1.15.23-.46,2.08Z"/>
    </g>
    <path class="cls-20" d="M226.7,53.11l-.92,7.84c-.14.04-.32-.03-.46,0-.27.06-.66-.07-.92,0-2.61.65-4.86.61-7.38,1.84-.47.23-.79.59-1.38.46.82-4.07,1.22-7.89,2.31-11.99,3.22-.16,5.89.79,8.76,1.84Z"/>
    <path class="cls-62" d="M187.03,63.26c-.04.16.2,2.48-.23,3.23.67.16,1.41-2.69,1.61-3.23l8.3.46c-.33,1.06-.66,2.15-.92,3.23-8.93.01-17.82-.02-26.75,0,.42-1.25.22-2.73,1.84-3.23,1.52-.47,5.11.34,6.92,0-.12.47-.93,2.87.23,2.77.11-1.29.68-2.12,1.15-3.23h7.84Z"/>
    <path class="cls-20" d="M199.49,54.5c-.86,3.1-1.8,6.16-2.77,9.22l-8.3-.46c1-2.71,1.25-5.77,2.77-8.3,2.71.6,5.61-.95,8.3-.46Z"/>
    <path class="cls-20" d="M221.63,44.35c1.82,2.69-1.63,2.86-2.77,4.61.7-2.38-2.01-3.98,2.77-4.61Z"/>
    <path class="cls-20" d="M225.78,46.66c.2.86.31,1.47.46,2.31l-5.07.23,4.61-2.54Z"/>
    <g>
      <path class="cls-32" d="M221.63,37.89l-2.77,1.15c5.8,1.74-3.99,4.72-6.69,3.92l-.46-1.84c-.79,3.62-7.43,3.3-7.38-.46-.83,4.39-4.4,2.35-7.84,2.77l.23-5.07c.09-.06.3.05.46,0,2.53-.06,5.08.08,7.61,0,.17,0,.75.03,1.38,0,2.68-.11,5.39.06,8.07,0,2.05-.05,1.3-.92,1.38-.92,1.6-.02,3.97.47,6,.46Z"/>
      <path class="cls-1" d="M213.09,38.82c.17.03.45.54.69.69-1.23.31-2.3,1.34-3.23,0,.7.06,2.41-.72,2.54-.69Z"/>
    </g>
    <path class="cls-60" d="M406.12,43.43v1.38c-2.19-1.24-5.91-.3-8.76-.23,5.53,5.17,10.57,10.81,15.68,16.37-.99.78-.88.01-.92,0-2.86-1.94-14.11-15.98-15.91-16.6-1-.34-5.82-.36-6.23.92-3.74-2.06-1.26-.32-3.23-.46-.05,0,.14-.93-.23-.92-1.02.01-3.5.75-4.84.69,4.79,6.41,10.53,12.2,15.22,18.68.75,1.04,2.03,1.87,2.08,3.23-1.32-.45-2.11-1.79-3-2.77-2.31-2.54-14.56-18.99-15.91-19.37-.97-.27-4.71-.16-5.77.46-.68-.49-.87-.74-1.38-1.38h6.23c.57-.22-.3-.5-.23-.92.13-.83-.62-1.04-.46-1.84,3.18,2.17,2.79,3.64,8.07,2.77l.46-.92c-1.73-.94-1.81-1.01-2.54-2.77l.46-.46c3.32.07.64.72,1.38,1.61,2.75,3.29,4.56,2.82,8.76,2.31l-3.69-3.69c4.45,1.51,4.54,5.53,11.3,3.92l-2.77-4.61c1.94.86,4.31,4.18,6.23,4.61Z"/>
    <path class="cls-27" d="M384.91,39.28l-.46.46s-1.29.17-.69-.46c.39,0,.77,0,1.15,0Z"/>
    <g>
      <path class="cls-49" d="M417.19,50.81c-.68-1.71-2.26-3.45-3.23-5.07-.46-.77-.93-1.54-1.38-2.31-1.19-2.01-2.55-3.99-3.69-6-.75-1.32-1.61-2.82-2.31-4.15-1.84-3.53-4.76-7.6-5.53-11.53,2.2-1.43,1.12-4.31,1.84-6.69,1.81-5.91,6.48-10.25,12.68-11.3,2.63-.45,5.38,1.59,6.23-.92,10.61,3.14,14.18,16.03,8.76,25.14-1.48,2.48-5.04,4.32-6.46,6.46-2.59,3.91-3.26,11.05-5.07,15.22-.4.91-.73,1.38-1.84,1.15Z"/>
      <path class="cls-58" d="M428.26,24.52c-.53,1.34-2.06,2.81-3.23,3.69-2.86.44-5.07,1.06-8.07.92-1.65-.08-4.98-2.3-6.23-.92-.63-.41-.71-.74-.92-.92v-1.84c2.53,1.47,2.57,1.69,5.3.46,1.56-.7,8.26-7.41,8.99-8.99,2.74-5.93-.19-6.56-3.69-9.92,8.18,1.94,10.73,10.2,7.84,17.53Z"/>
      <path class="cls-45" d="M420.42,6.99c-.65-.15-.82-.39-1.84-.46-12.19-.88-18.36,12.54-8.76,20.76.22.19.29.51.92.92,4.81,3.11,9.59,3.53,14.3,0,1.17-.88,2.7-2.35,3.23-3.69-2.04,7.82-12.33,9.48-18.68,5.07-10.93-7.59-3.96-26.56,9.69-23.98,2.34.44,1.06,1.29,1.15,1.38Z"/>
      <path class="cls-40" d="M420.42,6.99c3.5,3.36,6.43,3.98,3.69,9.92-.73,1.58-7.43,8.29-8.99,8.99-2.73,1.23-2.78,1.01-5.3-.46-5.86-3.42-3.87-12.78,1.15-16.14,2.33-1.56,5.19-1.57,7.61-2.77,1.02.07,1.19.31,1.84.46Z"/>
      <path class="cls-43" d="M418.58,6.53c-2.42,1.2-5.28,1.21-7.61,2.77-5.02,3.36-7.01,12.73-1.15,16.14v1.84c-9.6-8.22-3.43-21.63,8.76-20.76Z"/>
      <path class="cls-4" d="M425.03,28.21c-4.71,3.53-9.49,3.11-14.3,0,1.25-1.38,4.57.84,6.23.92,3,.14,5.21-.48,8.07-.92Z"/>
    </g>
    <path class="cls-39" d="M184.73,48.96c-2.66,4.42-3.54,9.63-5.53,14.3-.47,1.11-1.04,1.94-1.15,3.23-1.16.1-.35-2.3-.23-2.77,1.15-4.51,4.85-9.9,5.53-14.76.13,0,.93,0,1.38,0Z"/>
    <path class="cls-39" d="M191.18,54.96c-1.52,2.53-1.76,5.6-2.77,8.3-.2.54-.95,3.39-1.61,3.23.43-.74.19-3.07.23-3.23.63-2.59,3.32-6.34,3.23-9.46,1.3-.88.85,1.14.92,1.15Z"/>
    <path class="cls-12" d="M163.51,43.43c.06.28-.03.63,0,.92-.83.12-1.02-.29-1.84.46-.24.22-2.27,5.16-2.77,6-.05.04-.82.81-.92.92h-.46c1.2-2.61,5.26-7.38.92-6.46.2-1.6-3.01-1.28-2.77.46-.57-.14-1.25-.74-1.84-.92.63-.65.91-1.18,1.84-1.38,3.25-.71,6.61,1.68,8.07-3.23,1.32,1.25-.61,1.39-.23,3.23Z"/>
    <path class="cls-42" d="M153.82,41.12c-.08.1.08,1.9-1.15,2.31-.27.09-5.1.03-5.77,0-.4-.83,2.13-2.26,2.31-2.31,1.21-.29,3.26.21,4.61,0Z"/>
    <g>
      <path class="cls-20" d="M181.96,37.89c.86,1.54,1.88,3.08,2.77,4.61l-5.3.92.92-3.69c-2.85,4.01-4.3,4.07-9.22,3.69-.38-1.24,4.55-5.32.92-3.69-1.18.53-2.23,5.95-8.53,3.69-.38-1.84,1.55-1.97.23-3.23-1.46,4.91-4.83,2.52-8.07,3.23-1.21-1.98,2.3-3.15,2.31-3.92-2.39-1.61-2.98.21-4.15,1.61-1.35.21-3.4-.29-4.61,0,.03-5.81-2.41,1-3.23,1.84-1.36,1.4-2.2.86-2.31.92.68-2.11,1.85-4,2.77-6,2.86,1.31,17.39-.37,18.22,0,.52.23-.05,1.72.46,1.84.24.06,1.28-2.22,4.15-1.84h12.68Z"/>
      <path class="cls-14" d="M149.21,41.12c-.18.04-2.71,1.48-2.31,2.31-.44-.02-.94.17-.92-.46.82-.84,3.26-7.66,3.23-1.84Z"/>
      <path class="cls-50" d="M172.27,39.28c-.06-.02-.87-.71-.92-.92l3.69.69c-.64.29-2.17.39-2.77.23Z"/>
      <path class="cls-34" d="M172.27,39.28c-.96.23-2.13-.31-.92-.92.05.22.86.91.92.92Z"/>
    </g>
    <g>
      <path class="cls-38" d="M193.03,6.53c5.82,2.73,9.77,9.12,9.22,15.45-.54,6.24-5.17,7.85-7.38,12.45-1.93,4.01-3.81,12.51-3.23,16.84.36,3.11-1.12,1.36-1.38,1.38.05-.89-.65-1.54-.92-2.31-.42-1.18-.35-.89-.92-1.84-.73-1.22-1.57-2.44-2.31-3.69-.45-.76-.95-1.55-1.38-2.31-.89-1.53-1.9-3.07-2.77-4.61-.91-1.62-1.92-3.43-2.77-5.07-1.22-2.35-3.89-5.79-4.61-8.07-3.69-11.59,6.94-23.61,18.45-18.22Z"/>
      <g>
        <path class="cls-7" d="M185.42,7.91c2.6-.42,7.44.38,9.69,1.84s4.63,8.48,4.38,11.76c-1.1,14.41-22.1,12.48-23.52,0-.59-5.21,3.94-12.72,9.46-13.61Z"/>
        <path class="cls-69" d="M193.49,28.21c4.25-4.43,5.96-10.84.69-15.22.43,4.8-7.1,17.43-11.99,13.38l-.23,1.38c-6.72-5.12-3.79-16.74,4.38-17.99,11.29-1.73,16.44,13.46,7.15,18.45Z"/>
        <path class="cls-25" d="M193.49,28.21c-3.18,1.71-8.57,1.79-11.53-.46l.23-1.38c4.89,4.06,12.43-8.58,11.99-13.38,5.27,4.38,3.56,10.79-.69,15.22Z"/>
      </g>
    </g>
    <path class="cls-20" d="M183.34,48.96c-.69,4.86-4.38,10.25-5.53,14.76-1.81.34-5.4-.47-6.92,0,.96-4.82,3.52-11.22,6-15.68,2.05,1.1,4.26.8,6.46.92Z"/>
    <path class="cls-20" d="M169.05,63.72h-7.84c.88-1.89,5.89-13.54,6.46-14.07.88-.82,5.93.03,7.38-1.15-1.96,5.14-3.94,10.11-6,15.22Z"/>
    <path class="cls-65" d="M163.51,44.35c.66-.1,5.51-.14,5.77,0,.37.21-.67,1.4-.23,1.61.59.29.6-.39.92-.23,1.85.9,3.61.89,5.53,1.38-.12.32-.2.68-.46,1.38-1.45,1.18-6.5.34-7.38,1.15-.57.53-5.58,12.17-6.46,14.07-.49,1.05-.92,2.17-1.38,3.23-.3,0-.62,0-.92,0,.39-1.08.89-2.19,1.38-3.23,2.17-4.53,5.17-9.69,6.92-14.3.25-.65,1.57-3.21,1.15-3.69l-6.69-.92c.82-.75,1.02-.34,1.84-.46Z"/>
    <path class="cls-62" d="M169.05,63.72c-.29.72-.48,2.35-.92,3.23-2.76,0-5.54,0-8.3,0,.46-1.06.9-2.18,1.38-3.23h7.84Z"/>
    <path class="cls-20" d="M175.5,47.12c-1.92-.5-3.69-.48-5.53-1.38-.36-3.33,5.13-.57,7.15-1.38.77,2.02-1.55,2.6-1.61,2.77Z"/>
    <g>
      <path class="cls-49" d="M138.14.53c.07,2.57,1.97,1.16,4.15,1.38,1.96.2,4.8-.07,5.07,0,9.2,2.36,9.99,16.64,4.61,23.29-.91,1.13-4.32,2.6-5.53,4.61-2.13,3.51-2.38,10.48-5.07,14.07-.01-.11-1.27-1.59-1.38-1.84-.31-.69-.61-1.2-.92-1.84-.42-.88-1-1.55-1.38-2.31-.86-1.72-1.91-3.38-2.77-5.07-5.08-10.02-15.26-27.99,3.23-32.29Z"/>
      <path class="cls-4" d="M143.68.07l-1.38,1.84c-2.18-.22-4.08,1.19-4.15-1.38,1.9-.44,3.58-.65,5.53-.46Z"/>
      <path class="cls-55" d="M147.37.99v.92c-.27-.07-3.12.2-5.07,0l1.38-1.84c1.23.12,2.55.5,3.69.92Z"/>
      <path class="cls-40" d="M150.13,7.45c3.15,3.5,3.04,9.44.92,13.38-.8,1.49-1.87,1.96-3.23,2.77,3.84-4.55,5.62-10.82,1.15-15.68-1.08,3.09-1.52,5.29-3.46,8.07-1.37,1.96-7.35,8-9.46,5.77-.3.39.42.93.69,1.38-15.11-7.97,3.07-27.14,13.38-15.68Z"/>
      <path class="cls-45" d="M150.13,7.45c-10.3-11.46-28.49,7.71-13.38,15.68,2.4,4,7.93,2.33,11.07.46,1.36-.81,2.43-1.28,3.23-2.77-2.59,7.83-14.91,6.87-18.91.69-7.57-11.69,9.03-25.41,17.99-14.07Z"/>
      <path class="cls-58" d="M147.83,23.59c-3.14,1.87-8.67,3.54-11.07-.46-.27-.46-.99-1-.69-1.38,2.1,2.24,8.09-3.8,9.46-5.77,1.94-2.78,2.37-4.99,3.46-8.07,4.46,4.86,2.69,11.14-1.15,15.68Z"/>
    </g>
    <path class="cls-39" d="M134.45,40.2c-2.15.25-2.78.47-3.69,2.31-.25.51-2.05.61.46,1.15l-2.31.69c-.84.3-1.62,2.96-1.84,3.23-5.02,6.07-8.81,12.98-13.38,19.37-.3,0-.62,0-.92,0,.33-.84.87-1.58,1.38-2.31,4.53-6.48,8.8-13.15,13.38-19.6-.1-1.39-1.02-1.01-1.84-1.15v-.46c4.41.1,2.6-1.12,4.15-2.31s3.55-3.98,4.61-.92Z"/>
    <path class="cls-44" d="M138.6,40.66c-1.39,3.8-4.19,2.78-7.84,1.84.91-1.84,1.54-2.06,3.69-2.31,1.44-.17,2.68.75,4.15.46Z"/>
    <path class="cls-42" d="M126.61,40.66c.16-.02,2.64.54,3.23.46-1.55,1.18.26,2.4-4.15,2.31-5.69-.12-2.48-2.45.92-2.77Z"/>
    <g>
      <path class="cls-20" d="M137.68,37.89c.38.76.96,1.43,1.38,2.31-.49-.06-.38.23-.46.46-1.47.29-2.71-.63-4.15-.46-1.07-3.06-3.04-.27-4.61.92-.59.08-3.07-.48-3.23-.46-.26-.66.59-1.14.46-1.38-.94-1.79-3.18-.69-4.84-.46.61,1.47,1.62.55,2.54.46-3.54,3.7-5.47,4.88-10.84,4.15-1.66-1.21,1.23-1.18.92-2.77-3.37,3.02-5.42,3.58-9.92,2.08-.14-.21,5.05-4.26,2.54-3.92-1.19,1.32-2.92,2.72-3.92,4.15.14-1.98,1.98-3.64,2.77-5.07h31.36Z"/>
      <path class="cls-70" d="M127.07,39.28c-.76.05-1.55-.07-2.31,0-.91.09-1.92,1-2.54-.46,1.67-.23,3.9-1.32,4.84.46Z"/>
      <path class="cls-17" d="M116.69,38.82c.36-.19,2.03-.07,1.61.69-.45.81-2.31-.32-1.61-.69Z"/>
    </g>
    <path class="cls-20" d="M134.45,49.89c1.08-.21,4.68.65,6,.92-2.28,5.86-6.53,10.51-9.22,16.14-2.91,0-5.85-.01-8.76,0,2.01-2.13,10.17-16.72,11.99-17.07Z"/>
    <path class="cls-39" d="M141.37,50.35c-.07.24.03.63,0,.92-.54.39-6.13,10.42-6.46,11.53-.19.64-1.59.46-.69,1.84.74.74,5.2.46,6,.92.86.5.62,1.35.69,1.38-3.22,0-6.46-.01-9.69,0,2.69-5.63,6.94-10.28,9.22-16.14.24-.62.33-.53.92-.46Z"/>
    <path class="cls-39" d="M133.99,49.42c.12.07.54-.07.46.46-1.82.35-9.99,14.93-11.99,17.07-.15,0-.31,0-.46,0,3.19-6.15,7.46-11.64,11.07-17.53.32-.53.44-.43.46-.46-.08.53.34.39.46.46Z"/>
    <path class="cls-44" d="M133.53,48.96s-.14-.07-.46.46l-6-1.84c.23-.27,1-2.93,1.84-3.23s7.09-.61,7.38-.23c-.37,1.82-1.81,3.23-2.77,4.84Z"/>
    <path class="cls-9" d="M79.56,66.95c1.67-.11,3.4.04,5.07,0,.31,0,.6,0,.92,0,2.88-.05,5.86.04,8.76,0,.3,0,.62,0,.92,0,2.87-.04,5.85.03,8.76,0,.14,0,.3,0,.46,0,2.76-.02,5.54.02,8.3,0,.3,0,.62,0,.92,0,2.76-.02,5.54.01,8.3,0,.15,0,.31,0,.46,0,2.91-.01,5.85,0,8.76,0,3.22-.01,6.46,0,9.69,0,.07.03-.2.72.23.92,3.95,1.88,27.47-1.78,33.44.46-3.99,0-8,0-11.99,0-1.47,0-2.57.46-4.15.46-25.05.05-50.07-.85-75.18,0-1.81.06-4.61-.84-6.92-.46-.75.12-1.04-.08-1.84.46l-.46-1.38c1.66-.87,3.73-.34,5.53-.46Z"/>
    <path class="cls-20" d="M125.69,43.89c.82.15,1.75-.24,1.84,1.15-4.57,6.46-8.85,13.12-13.38,19.6-2.54-2.72-4.18.14-7.38-.46,1.82-2.58,13.19-19.84,14.53-20.29.36-.12,3.83-.1,4.38,0Z"/>
    <path class="cls-20" d="M107.7,60.96c-1.26.11-4.04-1.95-4.61-2.77-.03-.05-.79-.32-.92-.69,5.51-5.3,7.61-15.95,16.84-13.61,1.04.66.19,1.24-.23,2.08-1.89,3.75-8.25,10.99-11.07,14.99Z"/>
    <path class="cls-20" d="M94.32,66.95c-2.91.04-5.89-.05-8.76,0,4.22-7.3,5.25-6.17,13.15-6.46l-4.38,6.46Z"/>
    <path class="cls-32" d="M106.32,62.8c-.86,1.25-1.94,2.63-2.31,4.15-2.91.03-5.89-.04-8.76,0,.64-1.73,2.06-2.85,3.23-4.15h7.84Z"/>
    <path class="cls-20" d="M114.16,64.65c-.51.73-1.06,1.46-1.38,2.31-2.76.02-5.54-.02-8.3,0,.44-.97,1.75-1.98,2.31-2.77,3.2.6,4.84-2.26,7.38.46Z"/>
    <path class="cls-32" d="M107.7,60.96c-.44.62-.96,1.23-1.38,1.84h-7.84c1.68-1.88,2.43-2.99,4.61-4.61.57.82,3.35,2.88,4.61,2.77Z"/>
    <g>
      <path class="cls-20" d="M104.01,10.68c2.89,2.09,5.16,7.52,4.61,11.07-.27,1.2-.56,2.52-.92,3.69-6.56,13.91-27.92,6.49-23.52-8.99,2.26-7.96,13.48-10.36,19.83-5.77Z"/>
      <path class="cls-63" d="M104.01,10.68c-6.35-4.59-17.57-2.19-19.83,5.77-4.4,15.48,16.97,22.9,23.52,8.99-1.62,5.32-5.58,8.71-11.53,8.76-13.38.13-18.44-17.27-8.07-24.45,4.62-3.2,11.91-3.54,15.91.92Z"/>
      <path class="cls-15" d="M103.09,15.75c-1.89,6.57-6.17,8.87-10.61,13.38-14.25-2.39-6.92-21.71,5.77-19.83,4.18.62,4.09,3.02,4.84,6.46Z"/>
      <path class="cls-15" d="M92.48,29.13c4.44-4.51,8.71-6.8,10.61-13.38.28-.96-.57-2.42.69-3.23,4.32,4.83,3.72,11.27.92,15.22l-.69-.69c-1.95,5.34-7.84,5.33-12.68,3.92-.93-1.55.59-1.27,1.15-1.84Z"/>
    </g>
    <g>
      <path class="cls-20" d="M360.92,37.89c.42-.04.51.52.92.46-1.6,1.74-1.99,3.23-4.84,3.23-3.86,0,.79-1.03-.46-2.31-1.18-.55-4.41-1.09-4.38.69l2.31,2.77c-.29.74-1.27.61-1.38.69-4.61.47-5.59-.09-7.61-4.15-2.4.75,2.51,3.23.92,4.15-3.4-.35-6.54,1.51-7.38-2.77l-.46,2.77c-6,2.1-8.67-6.61-6.92,0-4.37.06-6.12.66-8.76-2.77l.46,2.77c-3.57-.18-7.18.64-7.61-3.69.28-.62.64-1.22.92-1.84,14.62.25,29.69,1.46,44.28,0Z"/>
      <polygon class="cls-51" points="329.79 39.28 332.79 39.97 329.79 40.2 329.79 39.28"/>
      <polygon class="cls-35" points="321.49 39.28 324.02 39.97 321.49 40.2 321.49 39.28"/>
    </g>
    <path class="cls-20" d="M366,46.66c3.98,3.81,6.24,10.78,10.84,14.3l-9.46-14.3c1.82-.38,5.19.5,7.38.46,4.03,5.89,8.67,11.35,12.91,17.07-2.52.39-8.64-1.38-7.38,2.31-1.57-1.23-2.15-2.71-3.69-4.15-4.34-4.05-7.21-3.95-13.15-3.69l4.38-1.15c-2.51-.75-2.98-1.08-4.61-3-1.15-1.35-2.64-4.79-3.69-6.46,1.2-.87,2.07-.15,3.23-.69,0-.35-4.74.13-2.77-2.54,4.19.27,2.18-1.81,6,1.84Z"/>
    <path class="cls-20" d="M395.98,63.72h-7.38c-4.05-5.59-9.13-10.76-12.91-16.6.64-.02,3.15.17,3.23-.23-2-.46-2.97-.88-4.61-2.08,1.06-.62,4.79-.74,5.77-.46,1.36.38,13.61,16.83,15.91,19.37Z"/>
    <path class="cls-44" d="M360,44.81c-1.98,2.67,2.77,2.19,2.77,2.54-1.16.55-2.02-.18-3.23.69-.4.29-.64.12-.46.92-2.72-.62-5.18-.83-7.84-1.84-.73-.28-.19-.67-.92-.92.07-.07.11-1.07.92-1.84,2.94.13,5.85.28,8.76.46Z"/>
    <path class="cls-60" d="M367.38,46.66l9.46,14.3c-4.6-3.51-6.86-10.49-10.84-14.3.44-.05.96.09,1.38,0Z"/>
    <g>
      <path class="cls-12" d="M367.38,37.89c.29.05.63-.04.92,0,.11,1.43,1.25,1.55,1.84.46.6.05,1.24-.03,1.84,0,2.83,2.79,2.18-.61,6.46,2.31-.16.81.6,1.01.46,1.84-2.58-3.38-4.41.5-7.15-1.84-1.23.76.64,2.12,1.15,2.77s.71.89,1.38,1.38c1.64,1.19,2.61,1.62,4.61,2.08-.08.41-2.59.21-3.23.23-.3.01-.62,0-.92,0-2.19.04-5.56-.85-7.38-.46-.43.09-.94-.05-1.38,0-3.81-3.65-1.81-1.58-6-1.84-2.91-.18-5.82-.33-8.76-.46.71-.67.97-.28,1.84-.92.12-.09,1.1.05,1.38-.69l-2.31-2.77c-.03-1.78,3.2-1.24,4.38-.69,1.25,1.28-3.4,2.3.46,2.31,2.85,0,3.24-1.49,4.84-3.23.18-.2.82-.77.92-.92.26,1.5,5.05,2.09,4.61.46Z"/>
      <path class="cls-31" d="M367.38,37.89c.44,1.63-4.35,1.04-4.61-.46.02-.03.14.08.46-.46,1.35.23,2.83.7,4.15.92Z"/>
      <path class="cls-53" d="M370.15,38.35c-.59,1.09-1.74.97-1.84-.46.75.11,1.75.45,1.84.46Z"/>
      <path class="cls-20" d="M378.91,42.51c-.07.42.8.7.23.92h-6.23c-.52-.65-2.39-2.01-1.15-2.77,2.74,2.35,4.57-1.53,7.15,1.84Z"/>
      <path class="cls-53" d="M363,42.04c.18-.09,1.16,1.24.46,1.38-.93.19-.91-1.17-.46-1.38Z"/>
    </g>
    <g>
      <path class="cls-33" d="M217.01,33.28c-.54,1.32-.66,2.88-1.38,4.15-.08,0,.67.88-1.38.92.58-2.07-1.08-3.42-1.84-5.07-2.2-4.77-7.9-13.93-7.38-18.68.94-8.61,13.38-10.91,17.99-3.69,5.08,7.96-3.08,15.2-6,22.37Z"/>
      <g>
        <path class="cls-57" d="M213.56,9.3c10.01-1.13,10.67,12.93,3.23,14.3-10.59,1.94-12.13-13.3-3.23-14.3Z"/>
        <path class="cls-57" d="M219.09,13.91c.11-.05,2.03,1.04,2.08,1.15,1.34,3.08-4.31,9.38-8.53,7.61l6.46-8.76Z"/>
      </g>
    </g>
    <g>
      <path class="cls-20" d="M459.17,93.24c3.85,3.62,8.42,6.74,11.53,11.3-.12.91-13.99.98-14.99.69-1.05-.31-10.06-10.2-11.3-11.99,3.78,1.88,10.62.89,14.76,0Z"/>
      <path class="cls-47" d="M463.78,100.16c-1.6-.26-7.73-.76-6-3.92.15-.27,4.49.91,4.84,1.15,1.63,1.14.8,1.81,1.15,2.77Z"/>
      <path class="cls-47" d="M463.78,100.16c.02.05,1.54-.18.69.92-.4-.14-.63-.91-.69-.92Z"/>
    </g>
    <path class="cls-44" d="M342.01,48.04c.04.06.54.32.92.92,2.72,4.27,5.61,10.87,7.38,15.68-1.78-.44-5.17-.45-7.38-.92l-6.46-14.76c1.9-.19,3.53-1.27,5.53-.92Z"/>
    <path class="cls-44" d="M334.63,48.96c.3-.01.62.02.92,0l6,13.84c-2.87-.58-5.88-.83-8.76-1.38-1.66-2.23-3.69-11-5.07-12.45,2.3-.07,4.62.09,6.92,0Z"/>
    <path class="cls-59" d="M326.33,48.5c.15.01.32-.03.46,0l5.07,12.91c-1.42-.27-6.41-.72-7.15-1.38-1.33-1.2-.09-4.46-3-4.15-.2-.25-.22-.27-.46-.46-.66-1.91-1.21-4.06-1.84-6,2.22.02,4.73-1.1,6.92-.92Z"/>
    <path class="cls-20" d="M320.79,54.96s.13.19.46.46c.8,2.31,1.32,4.63,2.31,6.92l-8.3.46c-.62-2.56-2.93-5.53-3.23-8.3,1.73-.24,7.23-.19,8.76.46Z"/>
    <path class="cls-20" d="M326.33,48.5c-2.19-.18-4.7.94-6.92.92-.29-.87-2.13-4.09-2.08-4.61l.46-.92c5.15-.05,7.28-1.18,8.53,4.61Z"/>
    <path class="cls-20" d="M334.63,48.96c-2.29.09-4.62-.07-6.92,0-.07-.07.1-.16-.46-.46l-1.15-4.61c5-.28,7.81-.7,8.53,5.07Z"/>
    <path class="cls-20" d="M342.01,48.04c-2-.34-3.63.73-5.53.92-.15.02-.31-.01-.46,0l-2.08-4.15.46-.92c1.42,1.07,3.99-.43,5.53.46.85.49,1.52,2.91,2.08,3.69Z"/>
    <path class="cls-20" d="M350.31,46.2c-.06.06.05.96-1.15,1.38-.47.16-1.46-.11-2.08,0-1.22.22-2.43.57-3.69.46-.35-.71-2.3-2.31-2.08-3.69,1.86.29,4.78-.4,6.46,0,.15.04,1.37,1.44,2.54,1.84Z"/>
    <path class="cls-18" d="M336.48,48.96l6.46,14.76c-1.4-.3-1.3-.91-1.38-.92l-6-13.84c.15-.01.31.01.46,0s.31.02.46,0Z"/>
    <path class="cls-18" d="M327.71,48.96c1.38,1.45,3.41,10.22,5.07,12.45-.05,0,.13.99-.23.92-.39-.07-.64-.91-.69-.92l-5.07-12.91c.16.04.36-.05.46,0,.56.3.39.39.46.46Z"/>
    <path class="cls-42" d="M306.03,65.57l-6.92.23c1.1-2.86,5.75.56,4.15-3.92.08.05,1.05-.74,1.84.23.48.59.75,2.62.92,3.46Z"/>
    <path class="cls-39" d="M315.26,62.8c.04.14-.03.31,0,.46-.85.94-1.72-1.28-1.84-1.61-.76-2.14-1.08-4.52-2.31-6.69.41.02.46-.4.92-.46.3,2.77,2.61,5.75,3.23,8.3Z"/>
    <path class="cls-44" d="M323.56,62.34c.43,1,1.16,1.96,1.38,3.23-2.96.11-6.28.5-9.22.92-1.36-.75-.35-2.67-.46-3.23-.03-.15.04-.32,0-.46l8.3-.46Z"/>
    <path class="cls-20" d="M148.75,51.27c-2,3.82-3.56,7.93-6,11.53-2.59,0-5.23.01-7.84,0,.33-1.11,5.92-11.14,6.46-11.53.21-.15.66-.41.92-.46.49-.1,5.21,1.02,6.46.46Z"/>
    <path class="cls-20" d="M157.51,51.73c-1.81,3.94-4.04,7.68-6,11.53-2.41-.82-5.31-.45-7.84-.46,1.89-3.85,4.22-7.43,6.46-11.07h7.38Z"/>
    <path class="cls-44" d="M142.75,62.8c.3,0,.62,0,.92,0,2.53,0,5.43-.36,7.84.46-.35.68-1.72,2.65-.92,3.23v.46c-3.22,0-6.46,0-9.69,0-.07-.04.17-.88-.69-1.38-.8-.46-5.26-.18-6-.92-.89-1.39.5-1.2.69-1.84,2.61.01,5.25,0,7.84,0Z"/>
    <path class="cls-44" d="M155.67,45.73c2.57.65,1.54-.2,2.77-.46,4.34-.93.27,3.84-.92,6.46h-7.38c1.1-1.79,2.13-5.32,3.69-6.92.59.18,1.28.78,1.84.92Z"/>
    <path class="cls-44" d="M148.75,51.27c-1.25.56-5.96-.56-6.46-.46.48-1.68,2.45-4.95,3.69-6l3.92.92-1.15-1.38c.48-.05,4.08-.8,4.15.23-.91,2.33-3.08,4.64-4.15,6.69Z"/>
    <path class="cls-20" d="M148.75,44.35l1.15,1.38-3.92-.92c2.11-1.77,1.88-.37,2.77-.46Z"/>
    <path class="cls-21" d="M204.56,69.72l-.92,4.15c-.29-.04-.62.03-.92,0l.92-3.69c.22.01-.87-.68.92-.46Z"/>
    <g>
      <path class="cls-20" d="M219.32,90.94c-.38,2.01-1.57,12.66-2.31,13.61-.78,1-7.4.89-8.76.69-.88-.13-1.66.34-2.31-.69,1.53-2.15,2.23-11.55,3.23-12.91,1.08-1.48,8.22-.32,10.15-.69Z"/>
      <path class="cls-47" d="M213.09,96.47c8.78-.37-.55,5.98-3.46,1.15.08-.47,3.09-1.14,3.46-1.15Z"/>
    </g>
    <g>
      <path class="cls-20" d="M177.35,90.94c-2.03,4.78-3.53,9.8-6.23,14.3-3.3.07-6.62-.09-9.92,0,.34-1.91,6.4-14.01,7.15-14.3,1.56-.6,6.94.44,8.99,0Z"/>
      <path class="cls-24" d="M169.28,96.47c.55-.07,4.17.52,4.38,1.61-4.25,3.35-11.21-.77-4.38-1.61Z"/>
    </g>
    <g>
      <path class="cls-14" d="M219.32,90.01c-.05.29.05.64,0,.92-1.92.37-9.06-.79-10.15.69-1,1.36-1.7,10.77-3.23,12.91.65,1.03,1.43.56,2.31.69l9.22,1.38c-62.34-.03-124.68,0-187.03,0-.75-1-2.26.35-2.08-1.61.22-2.41,31.91-28.31,34.13-34.36.41.75.96,1.53,1.38,2.31l-5.53,4.84c.16,1.14,7.1,1.33,7.38-1.15.32.54.44.43.46.46.19.3-.29,1.45.23,1.84,1.41.2,1.81-1.08,2.54-1.84,1.12-.07,6.35,1.46,6.69,1.38,1.04-.23,5.86-8.65,7.61-9.22.12-.04.3.02.46,0l-15.45,20.76c2.04-.38,6.12.52,7.84,0s13.42-17.92,15.91-20.29c.37-.01.5-.44,1.38-.46l-15.68,20.53c1.49-.21,8.33.86,8.99.69,1.26-.31,12.65-18.99,14.99-21.22.31,0,.62,0,.92,0l-14.07,20.76c2.01-.41,6.7.56,8.3,0,1.46-.51,11.09-17.89,13.61-19.83.34-.26,1.04-.86,1.38-.92l-13.61,20.76c1.42-.6,7.77.61,8.3.46,1.15-.31,10.65-18.13,12.68-20.29.8-.43.78-.78,1.84-.92l-12.68,20.76c1.97-.39,6.24.53,7.84,0,1.85-.61,10.18-17.46,12.68-19.83.58-.55.47-1.1,1.38-.92l-12.22,20.76c1.86-.48,7.97.68,9.22,0,1.56-.84,9.21-17.27,11.3-19.83l1.38-.92-11.53,20.53c1.19-.17,7.24.8,7.61.69,1.14-.34,9.99-18.49,11.76-20.76.39,0,.49-.49,1.38-.46l-11.3,20.76c1.77-.41,8.45.68,9.46-.23,1.53-1.39,7.42-16,9.22-19.14.33-.57.96-1.54,1.84-1.38l-10.15,20.06,8.53,1.15,8.99-21.22c3.14.74.99.62,1.38,1.84l-8.76,18.68,8.76.69c-.15.32-.31.61-.46.92-1.56-.46-7.39-.9-8.53-.46-.83.32-6.76,12.29-8.53,13.61.17,1.14,8.36.66,9.69.69.64.01,1.22.02,1.84,0,3.3-.09,6.61.07,9.92,0,2.7-4.5,4.2-9.52,6.23-14.3.01-.03.2.17.46-.46,1.25-3.06,2.27-5.55,3.23-8.76.47-1.57,2.32-5.09,2.31-6.46l.46-.46h.46c-.2.44-.26,2.27-.46,2.77-1.62,4.05-3.24,8.08-4.61,12.22,1.3-.19,8.12.82,8.53.69.79-.24,5.48-13.94,5.77-15.45.15-.79-2.65-1.65.92-3.46-.2,1.38-1.54,2.29,0,2.77-.15.56-.32.91-.46,1.38-.11.38.12,1.02,0,1.38-.4,1.29-5.55,12.24-4.38,12.91,1.65-.31,8.06.51,8.99-.23.78-.61,2.14-10.62,3.23-12.22.15,0,.31.01.46,0l-2.77,12.22c.28.35,8.59.44,8.99.23.63-.32,2.63-12.09,3-13.84.53-2.48,1.07-4.96,1.84-7.38.15,0,.31,0,.46,0l-4.15,20.99,9.69.23Z"/>
      <path class="cls-20" d="M63.88,72.95c.66,1.19,1.15,2.52,1.84,3.69-.28,2.48-7.22,2.3-7.38,1.15l5.53-4.84Z"/>
      <path class="cls-20" d="M77.03,90.94c1.13-.35,9.09-.51,8.99,1.15-.06.93-12.25,12.89-13.15,13.15-.45.13-8.35.13-8.76,0l-.69-.69c2.87-.96,12.37-13.22,13.61-13.61Z"/>
      <path class="cls-20" d="M58.35,98.32c-.3-2.39-7.47-1.32-7.84-.23-.89,2.63,6.62,1.03,7.84.23-5.64,5.26-7.12,9.3-16.6,6.23,2.76-1.04,12.51-13.27,13.61-13.61.72-.23,10.05-.17,10.38.23-1.69,3.15-4.91,4.84-7.38,7.15Z"/>
      <path class="cls-20" d="M141.37,97.85c-.06,0-.36-.92-.69-.92-11-.15-6.57,3.95.69,1.84.33.85-3.02,6.16-3.92,6.46-.78.26-10.16.27-10.38-.69,1.96-1.36,9.57-13.34,10.38-13.61s8.7-.21,8.99.69c-1.55,1.51-2.43,6.45-5.07,6.23Z"/>
      <path class="cls-20" d="M87.64,90.94c.37-.13,7.47-.12,7.84,0l.46.92c-6.21,6.48-9.69,15.87-20.29,13.38l-.46-.92c2.81-.89,11.59-13.07,12.45-13.38Z"/>
      <path class="cls-20" d="M107.47,90.94c.35-.13,7.03-.13,7.38,0,.86.55.48.9.23,1.61-.27.79-10.04,12.44-10.84,12.68-.37.11-6.59.11-6.92,0l-.46-.92c2.58-.95,9.81-13.08,10.61-13.38Z"/>
      <path class="cls-20" d="M128.23,90.94c.34-.11,6.59-.12,6.92,0,.9.61.46.84.23,1.61s-9.6,12.44-10.38,12.68c-1.5.47-5.12-.34-6.92,0,1.76-1.54,9.32-14.02,10.15-14.3Z"/>
      <path class="cls-20" d="M151.06,100.62c-4.2-1.87-7,1.15-10.15,3.46l8.3-.23c-2.34,2.13-6.88,1.85-10.15.69-.03-.53,4.8-5.78,5.07-6.23,1.18,2.43,5.41.56,7.38-.23.28-1.55-5.83-1.46-6.92-.69.02-.03-.85-.13-.46-.69.58-.86,3.58-5.67,3.92-5.77,1.13-.31,6.48,1.13,8.3.46-.75,3.35-3.3,6.54-5.3,9.22Z"/>
      <path class="cls-20" d="M57.19,78.94c.66-.15,5.01,1.26,6.23,1.15-1.72,1.23-7.81,10.11-8.99,10.38-.73.16-6.33-1.07-7.84-.46,1.29-1.52,9.64-10.85,10.61-11.07Z"/>
      <path class="cls-20" d="M71.72,83.56c-5.54,7.76-5.05,6.79-15.45,6.46,2.36-2.49,4.73-6.54,7.15-8.76,2.23,1.12,5.22,1.91,7.61.92l.69,1.38Z"/>
      <path class="cls-21" d="M71.72,83.56l-.69-1.38c-2.39.98-5.38.19-7.61-.92,3.46-3.18,6.43-.67,11.3-1.84-.4,1.73-2.05,2.82-3,4.15Z"/>
      <path class="cls-20" d="M151.06,100.62c-.4.53-1.38,2.81-1.84,3.23l-8.3.23c3.14-2.31,5.95-5.33,10.15-3.46Z"/>
      <path class="cls-24" d="M141.37,97.85c.04.29-.08.73,0,.92-7.26,2.11-11.69-2-.69-1.84.33,0,.63.92.69.92Z"/>
      <path class="cls-24" d="M144.14,98.32c.15-.24.31-.69.46-.92,1.09-.77,7.2-.86,6.92.69-1.97.79-6.2,2.66-7.38.23Z"/>
      <g>
        <path class="cls-20" d="M117.16,90.94c1.86-.61,6.95.45,9.22,0,1.25.73-8.82,13.91-10.15,14.3-.48.14-8.79.15-9.22,0l-.46-.92c1.84-1.33,9.8-13.11,10.61-13.38Z"/>
        <path class="cls-24" d="M114.85,96.93c10.78-2.12,3.59,6-2.08,1.15-.01-.27,1.83-1.11,2.08-1.15Z"/>
      </g>
      <path class="cls-24" d="M58.35,98.32c-1.22.8-8.74,2.4-7.84-.23.37-1.09,7.54-2.16,7.84.23Z"/>
      <g>
        <path class="cls-20" d="M97.78,90.94c1.55-.49,6.18.18,8.07.23.8.96-10.24,13.76-11.3,14.07-1.97.57-6.46-.42-8.76,0,1.94-1.53,11.1-14.02,11.99-14.3Z"/>
        <polygon class="cls-21" points="95.94 98.78 96.4 99.24 96.4 99.7 95.94 99.7 95.94 98.78"/>
      </g>
      <g>
        <path class="cls-20" d="M199.26,90.94c1.11-.53,7.27.28,8.99.23.43.91-2.79,13.75-3.46,14.07-.47.22-10.04.16-10.38-.23,1.35-1.68,3.94-13.64,4.84-14.07Z"/>
        <path class="cls-47" d="M201.56,96.47c8.68-.41-.29,5.86-3.46,1.15.06-.2,3.17-1.14,3.46-1.15Z"/>
      </g>
      <g>
        <path class="cls-20" d="M45.2,90.94c.84-.21,8.4-.25,8.53.69-2.44,1.79-12.23,13.1-14.07,13.61-1.7.47-6.81-.96-8.99-.69,2.6-1.94,12.37-13.07,14.53-13.61Z"/>
        <path class="cls-8" d="M42.9,97.85c.42-.08.94.06,1.38,0,.52.26-4.39,3.19-5.3,2.54-.11-.21,3.69-2.49,3.92-2.54Z"/>
        <path class="cls-49" d="M42.9,96.01c.88-.31,2.22.19,3,.69-1.04,1.3-2.61.67-3.69,0,.25-.16.49-.62.69-.69Z"/>
      </g>
      <g>
        <path class="cls-20" d="M189.11,90.94c.67-.28,8.67-.21,8.99.69-1,1.86-3.66,13.11-4.84,13.61-1.49.62-7.61-.46-9.69,0,.2-1.84,4.83-14,5.53-14.3Z"/>
        <path class="cls-47" d="M191.42,96.47c.69,0,1.73.84,2.77.46,3.19,1.62-6.29,3.99-6.69.69.08-.26,3.62-1.16,3.92-1.15Z"/>
      </g>
      <g>
        <path class="cls-20" d="M178.96,90.94c.66-.26,8.72.34,8.99.69-1.3,1.75-5.05,13.15-6.23,13.61-.41.16-8.35.15-8.76,0-.96-.7-.43-.75-.23-1.61.17-.76,5.57-12.43,6.23-12.68Z"/>
        <path class="cls-24" d="M178.04,96.93c11.57-2.4,3.33,5.79-1.61.69.55-.02,1.48-.66,1.61-.69Z"/>
      </g>
      <g>
        <path class="cls-20" d="M67.8,90.94c.75-.22,7.48-.24,7.61.69-6.56,5.27-11.47,15.65-20.99,13.61l-.46-.92c2.14-1.42,12.78-13.07,13.84-13.38Z"/>
        <path class="cls-41" d="M63.19,97.39c.14-.07,3.16-.39,3,.69l-5.77,3c.2-1.52,1.98-1.9,3-2.54.42-.26-.76-.9-.23-1.15Z"/>
      </g>
    </g>
    <path class="cls-39" d="M76.34,68.34l5.53,1.15c-5.08-1-6.3,7.63-11.07,4.84.74-.96,3.4-5.34,3.69-5.53.8-.54,1.09-.34,1.84-.46Z"/>
    <path class="cls-60" d="M384.45,70.18l2.31,4.38c-1.38.35-2.06-1.47-3.23-2.08l-1.38-3c1.5-1.05,1.86.65,2.31.69Z"/>
    <g>
      <path class="cls-14" d="M308.34,68.34l4.61,1.61c.11,1.56-3.83.3-4.15,2.31-.15.92,4.94,17.31,5.77,17.76.44.24,9.61.16,9.92-.23l-7.61-20.53c1.16-.46,7.59,20.84,8.76,21.22.45.14,8.05-.89,9.46-.69l-8.53-20.53c1.64-.76,8.11,20.54,10.15,21.22.38.13,7.92-.29,8.07-.69l-8.99-20.53c2.24,2.2,8.75,20.22,10.15,20.76.63.24,8.78.29,8.99-.69l-9.92-20.06c2.56,1.91,9.78,20.2,11.07,20.76.43.19,9.17.15,9.46-.23-2.73-3.04-4.03-7.5-6.92-10.38-.13-.12.25-1.14-.23-1.38-.15-.08-2.79.63-3.46-.23,1.47-1.61,1.92.96,1.84-1.61-.08-2.98-3.08-4.88-3.23-7.84.15,0,.31,0,.46,0,.85,2.72,2.77,4.96,4.15,7.38.66,1.16,1.18,2.53,1.84,3.69.8,1.4,6.06,10.9,6.69,11.07.4.11,6.94-.7,8.3,0,1.05-.34-.4-2.44-.69-3-.77-1.48-5.26-8.36-6.46-8.53.51-.4.96-1.17,1.38-1.38.45,1.74,6.92,12.21,7.61,12.45.45.16,9.19.52,9.46-.23l-13.84-21.45c.15,0,.31,0,.46,0,2.12,3.49,4.64,6.76,6.92,10.15.3.45.61.94.92,1.38.95,1.34,6.09,9.94,6.69,10.15s8.7.65,8.99-.23c-1.58-1.38-5.75-9.33-6.92-9.92v-.46c.45.04.93-.02,1.38,0,.12,1.6,6.1,10.4,6.69,10.61.43.15,8.87.37,8.99-.23l-14.53-20.53c3.01,1.86,14.02,20.28,15.22,20.76.44.17,9.19.73,9.46-.23l-15.68-21.45c.15,0,.31,0,.46,0,2.67,2.27,15.48,21.81,16.84,22.14.77.19,8.2-.77,9.92-.69-5.1-5.89-10.73-11.53-15.68-17.53-.12-.15-2.64-2.9-1.61-3,3.3,1.77,17.09,20.85,18.45,21.22.85.23,7.31-1.29,8.99-.23l-8.3.92c2.58,1.66,12.36,13.57,14.07,14.07.7.2,10.1.21,10.38-.23l-12.45-12.68c.15.03.31-.02.46,0,.86-.14,1.18.59,1.84.92,1.24,1.79,10.25,11.69,11.3,11.99,1,.29,14.87.21,14.99-.69-3.11-4.56-7.68-7.68-11.53-11.3-2.65-2.49-5.09-5.3-8.3-7.15-.14-.45.76-1.49.92-2.08,2.49,2.44,21.22,19.94,21.22,21.45,0,.99-.71.49-1.15,1.15-50.65.02-101.35-.03-151.98,0,.91-1.28-.23-.56-.46-1.38-.45-1.58-4.59-13.07-5.07-13.61-1.36-1.5-7.21-.31-9.22-.69-.23-.83.07-.66,0-.92l8.3-.23c-.92-2.42-5.2-19.17-6-19.83s-6.45.17-6.46-.46l6-1.15c.46,0,.93,0,1.38,0Z"/>
      <path class="cls-20" d="M357.46,90.94c.39-.14,7.91-.15,8.3,0,.8.3,7.96,12.73,9.92,14.07-.31.42-9.9.43-10.38.23-.64-.27-7.27-10.93-7.61-11.76-.27-.65-1.29-2.14-.23-2.54Z"/>
      <path class="cls-20" d="M398.97,90.94c.39-.13,7.91-.14,8.3,0,.93.32,10.89,12.98,13.61,14.07-.29.38-8.72.45-9.46.23-1.68-.49-10.77-11.6-12.91-13.38l.46-.92Z"/>
      <path class="cls-20" d="M378.22,90.94c.42-.14,8.35-.14,8.76,0,.84.29,8.94,12.67,10.84,14.07-.26.34-7.94.44-8.53.23-1.21-.42-9.66-11.8-11.53-13.38l.46-.92Z"/>
      <path class="cls-20" d="M337.17,90.94c.37-.14,7.47-.14,7.84,0,.85.33,6.16,12.47,7.61,14.07-.28.35-8.56.42-8.99.23-.66-.28-6.53-11.98-6.69-12.68-.2-.87-.73-.92.23-1.61Z"/>
      <path class="cls-20" d="M409.12,90.94c.37-.13,7.47-.12,7.84,0,.94.31,11.8,12.71,14.07,14.07-.27.33-7.81.44-8.53.23-1.57-.46-11.56-11.71-13.84-13.38l.46-.92Z"/>
      <path class="cls-44" d="M356.77,76.18c.07,2.57-.38,0-1.84,1.61.67.86,3.31.15,3.46.23.48.25.11,1.26.23,1.38-5.08,1.39-8.02-3.35-1.84-3.23Z"/>
      <g>
        <path class="cls-20" d="M419.27,90.94c.46-.15,9.23-.16,9.69,0,1.25.43,11.14,12.99,14.07,14.07-.3.39-9.05.45-9.92.23-2.07-.52-11.74-11.5-14.3-13.38l.46-.92Z"/>
        <path class="cls-24" d="M428.96,96.47c.47-.12,3.66,1.18,4.61.92,2.9,3.33-5.44,2.2-5.77.69-.13-.48.95-1.56,1.15-1.61Z"/>
      </g>
      <g>
        <path class="cls-20" d="M367.61,90.94c.42-.14,8.35-.14,8.76,0,.87.3,9.32,12.94,11.76,14.07-.34.45-10.76.43-11.3.23-1.06-.38-8-11.88-9.69-13.38l.46-.92Z"/>
        <path class="cls-24" d="M375.45,96.47c.41-.04,5.23.89,4.84,2.08-3.14,3.19-10.87-1.54-4.84-2.08Z"/>
      </g>
      <g>
        <path class="cls-20" d="M346.85,90.94c.39-.14,7.91-.13,8.3,0,1.25.41,7.34,12.57,9.46,14.07-.33.43-10.34.45-10.84.23-.67-.29-6.99-11.97-7.15-12.68-.2-.87-.73-.92.23-1.61Z"/>
        <path class="cls-24" d="M353.31,96.47c8-.75,2.75,6-2.54,1.61-.3-.91,2.17-1.58,2.54-1.61Z"/>
      </g>
      <g>
        <path class="cls-20" d="M315.49,90.94c.41-.15,8.35-.16,8.76,0,.91.35,5.92,12.21,6.69,14.07-.29.4-9.46.43-9.92.23-.57-.25-5.03-10.26-5.3-11.3-.2-.76-1.18-2.64-.23-3Z"/>
        <path class="cls-24" d="M320.56,96.47c.69-.1,5.64.87,5.77,1.15-2.48,4.51-11.03-.4-5.77-1.15Z"/>
      </g>
      <g>
        <path class="cls-20" d="M326.56,90.94c.39-.15,7.91-.13,8.3,0,1.09.36,6.53,12.2,7.61,14.07-.32.41-9.92.47-10.38.23-.7-.37-6.7-13.83-5.53-14.3Z"/>
        <path class="cls-24" d="M331.63,96.47c.96-.16,5.41.51,5.3,1.61-2.18,3.21-10.96-.65-5.3-1.61Z"/>
      </g>
      <g>
        <path class="cls-20" d="M388.83,90.94c.39-.13,7.91-.14,8.3,0,.88.31,9.99,12.77,12.22,14.07-.31.38-9.13.46-9.92.23-1.88-.55-8.87-11.6-11.07-13.38l.46-.92Z"/>
        <path class="cls-24" d="M396.21,96.47c.45-.06,5.71.83,5.3,2.08-2.6,3.04-10.37-1.41-5.3-2.08Z"/>
      </g>
    </g>
    <g>
      <path class="cls-20" d="M242.84,105.23c-.61,0-1.23,0-1.84,0-1.45.15-.98-2.71-.92-3.46.71-9.69-.8-12.06,10.38-10.84.87.39,1.03,12.85.69,13.61-.61,1.38-6.84.39-8.3.69Z"/>
      <path class="cls-47" d="M244.92,96.47c8.59-.67,1.29,5.84-3,1.15.02-.41,2.68-1.13,3-1.15Z"/>
    </g>
    <g>
      <path class="cls-20" d="M272.36,105.23c-.15,0-.31,0-.46,0-1.52-.32-8.6.71-9.22-.69-.28-.63-.39-13.32.23-13.61,9.04.93,9.47-2.85,10.38,7.61.1,1.18.83,6.73-.92,6.69Z"/>
      <path class="cls-47" d="M266.14,96.47c.87-.1,5.18.34,4.84,1.61-2.36,1.81-5.47,1.58-7.38-.46.02-.36,2.27-1.12,2.54-1.15Z"/>
    </g>
    <g>
      <path class="cls-20" d="M231.77,105.23c-.61,0-1.23,0-1.84,0-1.45.16-.98-2.72-.92-3.46.78-9.63-.17-12.06,10.84-10.84.73.29-.15,13.62-.69,14.07-.82.69-5.96-.03-7.38.23Z"/>
      <path class="cls-47" d="M233.85,96.47c9.16-.9,2.1,5.91-3,1.15,0-.16,2.83-1.14,3-1.15Z"/>
    </g>
    <g>
      <path class="cls-20" d="M283.89,105.23c-.46,0-.93,0-1.38,0-1.47-.3-7.69.69-8.3-.69-.28-.62-1.25-13.21-.69-13.61,9.9-.74,9.45.01,10.84,8.99.1.63.89,5.2-.46,5.3Z"/>
      <path class="cls-47" d="M277.67,96.47c.93-.11,5.03.3,4.84,1.61-2.58,2.04-5.31,2.1-7.38-.46.05-.38,2.27-1.12,2.54-1.15Z"/>
    </g>
    <g>
      <path class="cls-20" d="M219.32,105.23c-.15,0-.31-.02-.46,0-1.96.48-1.08-1.67-.92-2.54.69-3.68,2.05-7.28,2.31-11.07.41-.65,8.14-.87,8.53-.69,1.28.57-.23,12.98-.69,13.61-1.06,1.45-6.98.34-8.76.69Z"/>
      <path class="cls-6" d="M222.32,96.47c.82-.13,5.17.67,5.3,1.15-1.83,2.23-5.73,2.44-7.38,0,.56-.1,1.82-1.11,2.08-1.15Z"/>
    </g>
    <g>
      <path class="cls-60" d="M252.53,78.94c0,.19,0,.23,0,.46.04,1.46-1.21,9.91-.23,10.61l8.99-.23c-.06-3.01-.32-5.99-.46-8.99-.08-1.61-.87-6.09.46-6,.11,2.07.38,14.8,1.15,15.22.42.22,9.18.16,9.46-.23l-1.15-20.53c1.09,2.62,1.34,19.5,2.08,20.53.43.6,7.65.02,8.99.23.51-.37.57-.57.69-1.15.51-2.46-3.64-16.97-4.15-20.53.62,0,1.23,0,1.84,0-.09,2.55,2.46,21.23,3.46,21.68,1.2.53,8.07-.22,9.92-.23.51-.76-3.93-15.53-4.15-17.76-.01-.14.93-1.89.46-2.77l2.31.69c-1.37.39-1.73.18-1.84,1.84-.06.92,3.18,17.23,3.69,17.99.98,1.45,7.24.35,8.99.69l-4.84-22.14c.15,0,.31,0,.46,0,2.1,6.41,3.3,13.11,5.07,19.6.27.97,1.35,1.96,1.38,2.08.07.26-.23.09,0,.92.43,1.56.24,3.94,1.38,5.53-.3-.02-.63-.03-.92,0-.61-7.1-5.28-6.25-11.07-4.84,1.41,4.08,1,10.58,4.15,13.61-.08.02-1.23.87-.92,1.38-.15,0-.31,0-.46,0,.2-1.39-1.23-.89-2.08-.92-3.69-.12-7.66-.44-11.3-.46,1.35-.1.56-4.68.46-5.3-1.39-8.98-.94-9.73-10.84-8.99-.56.39.41,12.98.69,13.61.61,1.38,6.84.39,8.3.69-3.35,0-6.79,0-10.15,0,1.75.04,1.03-5.51.92-6.69-.91-10.46-1.34-6.68-10.38-7.61-.63.29-.51,12.98-.23,13.61.62,1.4,7.71.37,9.22.69-9.67,0-19.39,0-29.06,0,1.47-.3,7.69.69,8.3-.69.34-.76.18-13.22-.69-13.61-11.18-1.22-9.67,1.15-10.38,10.84-.06.75-.53,3.61.92,3.46-3.04,0-6.19,0-9.22,0,1.42-.26,6.56.46,7.38-.23.54-.45,1.42-13.78.69-14.07-11.01-1.22-10.05,1.21-10.84,10.84-.06.74-.53,3.62.92,3.46-3.32.03-7.55-.11-10.61,0,1.79-.35,7.7.76,8.76-.69.46-.63,1.97-13.04.69-13.61-.39-.17-8.13.04-8.53.69-.25,3.79-1.62,7.39-2.31,11.07-.16.86-1.04,3.02.92,2.54-.08.01-1.21.85-.92,1.38-.15,0-.31,0-.46,0l-9.22-1.38c1.37.2,7.99.31,8.76-.69s1.92-11.6,2.31-13.61c.05-.29-.05-.64,0-.92,1.05-5.66,1.87-14.15,3.23-19.14.12-.43.46-1.89,1.15-1.61l-3,20.53c1.2-.04,8.43.74,8.76.46.8-.66,2.31-18.3,2.31-20.53.74.19.95.66.92,1.38-.23,5.85-1.97,12.69-2.31,18.68l10.15-.46,1.61-20.06-1.15,20.06,9.92.69.69-21.68c.15,0,.31,0,.46,0-.49,3.49.46,7.19.46,10.61Z"/>
      <g>
        <path class="cls-20" d="M284.13,90.94c1.42.38,8.8-.32,9.46.23.55.46,3.2,13.8,2.54,14.07-1.75-.31-9.49.51-10.38-.23-.55-.46-2.38-13.75-1.61-14.07Z"/>
        <path class="cls-47" d="M287.82,96.47c.88-.14,5.74.29,5.3,1.61-2.92,3.6-10.36-.83-5.3-1.61Z"/>
      </g>
      <g>
        <path class="cls-20" d="M252.76,90.94c.67-.3,7.88-.2,8.53.69.45.61,1.23,13.16.23,13.61l-9.92-.69c.53-2-.03-13.08,1.15-13.61Z"/>
        <path class="cls-47" d="M255.99,96.47c9.31-.93,1.69,6.25-3,1.15.02-.16,2.82-1.13,3-1.15Z"/>
      </g>
    </g>
    <path class="cls-44" d="M275.59,44.81c1.07,1.69.28,4.72.46,6-2.18-1.39-5.73-3.37-3.69-6,1.1-.01,2.16,0,3.23,0Z"/>
    <path class="cls-65" d="M276.51,44.81l2.31,21.68c-1.07-4.91-1.14-10.05-1.84-14.99-.05-.37-.91-.63-.92-.69-.18-1.28.61-4.31-.46-6,.31,0,.62,0,.92,0Z"/>
    <path class="cls-44" d="M284.36,48.96c-4.57,1.48-3.72-1.78-6-4.61,1.45.06,3.58.31,4.84-.46,1.31,1.43.78,3.77,1.15,5.07Z"/>
    <path class="cls-44" d="M325.87,65.57c-.78-.75-.66-2.16-.92-2.77,5.6.08,11.49-.25,16.6,2.08-1.34.72-3.69.08-5.3.23-1.3.12-1.06.38-2.77.46-2.52.13-5.09-.08-7.61,0Z"/>
    <path class="cls-5" d="M321.72,55.88c.31.38,2.82,5.95,3.23,6.92.26.61.14,2.01.92,2.77-.45.01-.82,0-.92,0-.22-1.27-.95-2.23-1.38-3.23-.99-2.29-1.51-4.6-2.31-6.92.24.2.26.21.46.46Z"/>
    <path class="cls-20" d="M242.84,55.42c-.53,2.61.01,6.43-.92,8.76l-6.23.46,4.84-2.08c-.81-1.83-3.41-.81-3.92-1.15-1.09-.74.74-2.85.69-3-.18-.55-3.54-1.27-3.69-1.15-.07.05-.54-.07-.46.46-2.95-1.57-9.44,1.21-2.77,1.61-1.47.54-3.11,1.24-4.61,1.61l.92-7.84c3.92,1.44,9.76,5.57,14.07,4.15.51-.17,1.22-1.6,2.08-1.84Z"/>
    <path class="cls-12" d="M233.16,57.73c-.08-.53.39-.41.46-.46l-.69,8.3.23-7.84Z"/>
    <path class="cls-62" d="M152.9,63.72c1.69-.49,5.41.36,7.38,0-.49,1.03-.99,2.15-1.38,3.23-2.76,0-5.57,0-8.3,0v-.46c1.13-.83.65-2.29,2.31-2.77Z"/>
    <path class="cls-20" d="M412.12,60.96c-1.01-.27-4.04-1.08-4.84-.92s-.92,1.84-1.61,2.77c-5.03-4.32-10.12-14.46-15.68-17.53.41-1.29,5.23-1.27,6.23-.92,1.8.62,13.05,14.66,15.91,16.6Z"/>
    <path class="cls-60" d="M405.66,62.8c-.28.38-.55.87-.46,1.38-.2-.08-1.78-.36-2.31-.46,1.97-1.25,1.06-1.3,0-3-1.81-2.9-12.37-13.09-12.91-14.53-.05-.14-.05-.76,0-.92,5.57,3.07,10.66,13.21,15.68,17.53Z"/>
    <path class="cls-20" d="M252.07,47.12c-2.82.67-.92,1.55-1.61,1.84-1.16.5-3.45-3.38-4.84-4.61,2.95-.71,7.49-1.73,6.46,2.77Z"/>
    <path class="cls-20" d="M386.75,44.81c-.56,1.69,2.2,1.44,3.23,1.38.55,1.44,11.1,11.63,12.91,14.53,1.06,1.7,1.97,1.75,0,3-1.6-.32-4.1,1.13-6-.46-4.69-6.48-10.43-12.27-15.22-18.68,1.34.06,3.83-.68,4.84-.69.37,0,.18.92.23.92Z"/>
    <path class="cls-44" d="M224.39,60.96c.23,1.46-.67,2.82-.92,4.15-1.73-.18-5.77-.42-6.46-2.31,2.52-1.24,4.77-1.2,7.38-1.84Z"/>
    <path class="cls-29" d="M389.98,45.27c-.05.16-.05.78,0,.92-1.03.05-3.79.3-3.23-1.38,1.97.14-.51-1.6,3.23.46Z"/>
    <path class="cls-20" d="M167.2,49.42c-1.74,4.61-4.75,9.77-6.92,14.3-1.97.36-5.69-.49-7.38,0,.55-2.27,3.91-10.66,5.07-11.99.1-.11.87-.88.92-.92,1.53-1.13,6.36-1.6,8.3-1.38Z"/>
    <path class="cls-44" d="M167.2,49.42c-1.95-.22-6.78.26-8.3,1.38.5-.83,2.52-5.77,2.77-6l6.69.92c.42.48-.91,3.04-1.15,3.69Z"/>
    <path class="cls-39" d="M152.9,63.72c-1.66.48-1.18,1.94-2.31,2.77-.8-.57.58-2.54.92-3.23,1.95-3.85,4.19-7.59,6-11.53h.46c-1.17,1.33-4.53,9.73-5.07,11.99Z"/>
    <path class="cls-43" d="M158.44,45.27c-1.23.26-.2,1.11-2.77.46-.24-1.74,2.97-2.06,2.77-.46Z"/>
    <path class="cls-20" d="M133.07,49.42c-3.61,5.89-7.88,11.38-11.07,17.53-2.76.01-5.54-.02-8.3,0,4.56-6.39,8.36-13.3,13.38-19.37l6,1.84Z"/>
    <path class="cls-39" d="M363.23,54.5c-.9.2-.99-.35-1.38-.92-.98-1.42-1.68-3.22-2.77-4.61-.18-.8.06-.63.46-.92,1.05,1.67,2.54,5.11,3.69,6.46Z"/>
    <path class="cls-20" d="M359.08,48.96c1.09,1.4,1.78,3.19,2.77,4.61l-8.07-3.23c-.61,1.47,4.15,1.84.69,2.77-.92-1.55-3.59-4-3.23-6,2.66,1.01,5.12,1.22,7.84,1.84Z"/>
    <g>
      <path class="cls-59" d="M347.08,47.58c-.08.56.78.77.92.92.87.89,1.3,1.95,2.77,2.31-.23,1.5-.99,1.99-.92,2.08.47.62,2.79-.06,3.46.23s3.1,5.86,3.92,6.92c-1.14-.09-3.86.43-5.3,0,1.86,1.63,6.08.85,8.76,1.38.59-1.86-2.38-.91-2.54-.92-1.05-2.48-2.32-5.07-3.69-7.38,3.46-.93-1.3-1.29-.69-2.77l8.07,3.23c.39.57.48,1.12,1.38.92,1.63,1.92,2.1,2.25,4.61,3l-4.38,1.15c5.94-.26,8.81-.36,13.15,3.69-2.6-.1-5.25.13-7.84,0-1.92-.1-3.58-.51-5.53-.46-2.09.05-2.96.12-5.07.46s-4.33.67-6.46,1.38c-1.92-4.53-6.06-10.01-8.3-14.76-.09-.19.09-.74,0-.92,1.26.11,2.47-.24,3.69-.46Z"/>
      <path class="cls-18" d="M351.7,63.72c.18.42.73,2.22.69,2.77-.64-.47-1.32-1.66-2.08-1.84-1.77-4.82-4.66-11.41-7.38-15.68h.46c2.24,4.75,6.39,10.23,8.3,14.76Z"/>
      <path class="cls-18" d="M351.24,47.12c-.36,2,2.31,4.45,3.23,6,1.37,2.31,2.64,4.9,3.69,7.38-.44-.04-.49-.43-.92-.46-.82-1.06-3.28-6.64-3.92-6.92s-2.99.39-3.46-.23c-.07-.09.69-.57.92-2.08,0-.06,1.03.35.92-.69-.08-.77-2.67-3.34-3.69-1.61-.15-.15-1-.36-.92-.92.61-.11,1.61.16,2.08,0,1.21-.42,1.09-1.32,1.15-1.38.73.25.19.64.92.92Z"/>
      <path class="cls-43" d="M357.23,60.03c.44.03.48.42.92.46.16.02,3.13-.94,2.54.92-2.69-.54-6.9.25-8.76-1.38,1.44.43,4.17-.09,5.3,0Z"/>
      <path class="cls-20" d="M350.77,50.81c-1.46-.36-1.9-1.42-2.77-2.31,1.02-1.73,3.61.85,3.69,1.61.11,1.04-.91.63-.92.69Z"/>
      <path class="cls-20" d="M362.54,54.96c.32.06,1.08,1.05.46,1.38-1.52.83-1.81-1.65-.46-1.38Z"/>
    </g>
    <g>
      <path class="cls-16" d="M345.12,53.33c-.57,1.05-.66,2.93-1.38,4.15-.32.54-.44.43-.46.46-.1.16-.74.72-.92.92-.42.05-.5-.5-.92-.46.04-2-1.51-3.46-2.31-5.07-2.18-4.4-7.78-13.33-7.38-17.76.79-8.71,12.87-12.31,18.45-5.07s-1.36,15.97-5.07,22.83Z"/>
      <path class="cls-69" d="M339.82,29.8c13.39-2.89,12.74,18.66-.92,13.84-6.02-2.12-5.19-12.52.92-13.84Z"/>
    </g>
    <g>
      <path class="cls-61" d="M168.02,64.6c-.54,1.32-.66,2.88-1.38,4.15-.08,0,.67.88-1.38.92.58-2.07-1.08-3.42-1.84-5.07-2.2-4.77-7.9-13.93-7.38-18.68.94-8.61,13.38-10.91,17.99-3.69,5.08,7.96-3.08,15.2-6,22.37Z"/>
      <g>
        <path class="cls-57" d="M164.56,40.61c10.01-1.13,10.67,12.93,3.23,14.3-10.59,1.94-12.13-13.3-3.23-14.3Z"/>
        <path class="cls-57" d="M170.09,45.23c.11-.05,2.03,1.04,2.08,1.15,1.34,3.08-4.31,9.38-8.53,7.61l6.46-8.76Z"/>
      </g>
    </g>
  </g>
  <path class="cls-45" d="M238.83,55.22c2.7-3.59,2.95-10.56,5.07-14.07,1.22-2.01,4.62-3.48,5.53-4.61,5.37-6.65,4.58-20.93-4.61-23.29v-.92c16.56,6.13,6.23,22.35,1.38,31.83"/>
  <path class="cls-49" d="M232.37,44.15c-5.08-10.02-15.26-27.99,3.23-32.29.07,2.57,1.97,1.16,4.15,1.38,1.96.2,4.8-.07,5.07,0,9.2,2.36,9.99,16.64,4.61,23.29-.91,1.13-4.32,2.6-5.53,4.61-2.13,3.51-2.38,10.48-5.07,14.07"/>
  <path class="cls-4" d="M241.14,11.4l-1.38,1.84c-2.18-.22-4.08,1.19-4.15-1.38,1.9-.44,3.58-.65,5.53-.46Z"/>
  <path class="cls-55" d="M244.83,12.32v.92c-.27-.07-3.12.2-5.07,0l1.38-1.84c1.23.12,2.55.5,3.69.92Z"/>
  <path class="cls-40" d="M247.6,18.78c3.15,3.5,3.04,9.44.92,13.38-.8,1.49-1.87,1.96-3.23,2.77,3.84-4.55,5.62-10.82,1.15-15.68-1.08,3.09-1.52,5.29-3.46,8.07-1.37,1.96-7.35,8-9.46,5.77-.3.39.42.93.69,1.38-15.11-7.97,3.07-27.14,13.38-15.68Z"/>
  <path class="cls-45" d="M247.6,18.78c-10.3-11.46-28.49,7.71-13.38,15.68,2.4,4,7.93,2.33,11.07.46,1.36-.81,2.43-1.28,3.23-2.77-2.59,7.83-14.91,6.87-18.91.69-7.57-11.69,9.03-25.41,17.99-14.07Z"/>
  <path class="cls-58" d="M245.29,34.92c-3.14,1.87-8.67,3.54-11.07-.46-.27-.46-.99-1-.69-1.38,2.1,2.24,8.09-3.8,9.46-5.77,1.94-2.78,2.37-4.99,3.46-8.07,4.46,4.86,2.69,11.14-1.15,15.68Z"/>
</svg>